<svg xmlns="http://www.w3.org/2000/svg" viewBox="0 0 301.24 208.49"><defs><style>.cls-1{fill:#00aeef;}.cls-2{fill:#363639;}.cls-3{fill:#ed1c24;}</style></defs><title>Asset 1</title><g id="Layer_2" data-name="Layer 2"><g id="Layer_1-2" data-name="Layer 1"><g id="_Group_" data-name="&lt;Group&gt;"><g id="_Group_2" data-name="&lt;Group&gt;"><path id="_Path_" data-name="&lt;Path&gt;" class="cls-1" d="M192.48,131.64c.1,1,.2,1.9.3,2.8s.1,1.9.2,2.8V140a24.37,24.37,0,0,1-.1,2.7,18,18,0,0,1-.2,2.2,8.75,8.75,0,0,1-.2,1.6l-.3,1.8c-.2.9-.3,1.8-.5,2.7s-.4,1.7-.6,2.5a52.23,52.23,0,0,1-1.8,5.6,18.94,18.94,0,0,1-.9,2.1c-.4,1-.8,2-1.3,3-.4.8-.7,1.5-1.1,2.2q-1.65,3-3.6,6l-1.5,2.1a37.46,37.46,0,0,1-2.6,3.3,5.24,5.24,0,0,1-1,1.1l-2.7,3a9.43,9.43,0,0,1-1,1c-.8.8-1.6,1.6-2.5,2.4-.5.4-1,.9-1.5,1.3s-.9.7-1.3,1.1-.9.7-1.3,1.1c-.7.5-1.4,1.1-2.1,1.6-.5.4-1.1.8-1.7,1.2-.2.1-.3.2-.5.3a6.73,6.73,0,0,1-1.1.7,16.29,16.29,0,0,1-1.7,1.1,17.39,17.39,0,0,1-1.8,1.1c-.6.4-1.3.7-1.9,1.1-.9.5-1.8,1-2.8,1.5a72.65,72.65,0,0,1-6.9,3.2c-.4.2-.8.3-1.2.5-.6.2-1.2.5-1.8.7-1.6.6-3.1,1.1-4.7,1.6a1.42,1.42,0,0,0-.6.2l-1.1.3c-.3.1-.6.2-1,.3h0a9.36,9.36,0,0,1-1.6.4c-.2,0-.3.1-.5.1a1.27,1.27,0,0,1-.6.1l-4.3.9c-.3.1-.7.1-1,.2a1.7,1.7,0,0,1-.7.1c-.8.1-1.5.3-2.3.4-.4.1-.7.1-1.1.2h-.2a7.72,7.72,0,0,1-1.5.2l-2.8.3c-2.7.3-5.3.5-8,.6-54.6,2.2-103.1-37.8-110.5-93.3A108,108,0,0,1,60.58,3h.1c.3-.1.5-.3.8-.4a3,3,0,0,0,.8-.4c.1,0,.1-.1.2-.1s.3-.2.5-.2a4.18,4.18,0,0,1,1-.4c.1,0,.1,0,.2-.1.4-.1.8-.3,1.2-.4a16.06,16.06,0,0,1,3.8-.8,5.7,5.7,0,0,1,1.3-.1c.4,0,.9-.1,1.3-.1a13.33,13.33,0,0,1,2,0h.9a1.7,1.7,0,0,1,.7.1,25.58,25.58,0,0,1,2.7.5c.4.1.8.2,1.1.3h.1c.3.1.7.2,1,.3l2.4.9a15.05,15.05,0,0,1,2.2,1.1c.4.2.8.5,1.3.8.2.1.4.3.6.4a25.1,25.1,0,0,1,9.9,13.1,24.72,24.72,0,0,1,1.1,4.7,19.72,19.72,0,0,1,.2,4.2,9.15,9.15,0,0,1-.1,1.6,7.72,7.72,0,0,1-.2,1.5c0,.3-.1.6-.1.9v.1c-.1.6-.3,1.2-.4,1.8v.1a10.93,10.93,0,0,1-.5,1.7,1.42,1.42,0,0,0-.2.6l-.6,1.5c0,.1-.1.1-.1.2-.3.6-.6,1.1-.9,1.7-.2.3-.3.5-.5.8a3.51,3.51,0,0,1-.5.8,13.3,13.3,0,0,1-1.4,1.9,9,9,0,0,1-.9,1,.78.78,0,0,1-.4.4L90,44.24c-.1.1-.2.1-.2.2a17.41,17.41,0,0,1-1.4,1.2c-.5.4-1.1.8-1.6,1.2-.3.2-.5.3-.8.5-.1,0-.1.1-.2.1a3,3,0,0,1-.8.4,4.67,4.67,0,0,1-1,.5c-.3.2-.7.3-1,.5h0A57,57,0,0,0,51.38,107a.75.75,0,0,0,.1.5,57,57,0,0,0,58.5,49.3,24.52,24.52,0,0,0,2.7-.2l2.9-.3a8.75,8.75,0,0,1,1.6-.2l1.5-.3h.2l1.5-.3a1.88,1.88,0,0,0,.8-.2.37.37,0,0,0,.3-.1,16,16,0,0,0,2.1-.5c.1,0,.3-.1.4-.1l2.2-.6c.8-.2,1.6-.5,2.3-.7h.1c.8-.3,1.5-.5,2.3-.8s1.4-.5,2.1-.8a58.26,58.26,0,0,0,8.6-4.5c1.3-.8,2.6-1.7,3.8-2.6.6-.5,1.2-.9,1.8-1.4,1.2-1,2.3-2,3.4-3l1.6-1.6c.5-.5,1-1.1,1.5-1.6l1.4-1.7a20.28,20.28,0,0,0,1.3-1.8c.4-.6.8-1.2,1.2-1.7l.1-.1a17.39,17.39,0,0,0,1.1-1.8,11.4,11.4,0,0,0,1-1.9c.7-1.3,1.2-2.6,1.8-3.9a15.87,15.87,0,0,0,.7-2,9.83,9.83,0,0,0,.5-1.6,28.64,28.64,0,0,0,.7-2.8,34.19,34.19,0,0,0,.8-8.4v-1.8h0v-.2a3.75,3.75,0,0,0-.1-1,11,11,0,0,0-.2-1.8v-.1a18.46,18.46,0,0,0-.4-2.3,10.46,10.46,0,0,0-.4-1.7v-.2a4.33,4.33,0,0,0-.1-.5v-1.4c0-.2.1-.3.1-.5a1.42,1.42,0,0,1,.2-.6c.1-.2.1-.4.2-.6a5.3,5.3,0,0,1,.6-1c.2-.3.5-.5.7-.8.2-.1.4-.3.6-.4s.4-.3.6-.4a.37.37,0,0,1,.3-.1c.2-.1.4-.1.6-.2a.37.37,0,0,0,.3-.1c.1,0,.3-.1.4-.1a.75.75,0,0,0,.5-.1,3.4,3.4,0,0,1,1,.1h.2a3.36,3.36,0,0,1,1.4.5,2.09,2.09,0,0,1,.6.4.1.1,0,0,1,.1.1h0l.1.1h0l.1.1a.1.1,0,0,1,.1.1l.2.2a.35.35,0,0,0,.2.1l.3.3c.4.4.9.8,1.3,1.2a46.83,46.83,0,0,1,3.8,3.9c.4.4.7.8,1.1,1.2a15,15,0,0,1,1.1,1.3,11.32,11.32,0,0,1,1,1.3,7.63,7.63,0,0,1,.8,1.1c.5.6.9,1.3,1.4,2,.4.5.7,1.1,1.1,1.6a2.51,2.51,0,0,1,.4.7,15.05,15.05,0,0,1,1,1.7c.8,1.3,1.4,2.7,2.1,4.1,0,.1.1.1.1.2.1.3.3.7.4,1,.3.6.5,1.2.8,1.9a20.94,20.94,0,0,1,.8,2.3c.3.8.5,1.6.8,2.4.1.3.1.5.2.8a10.46,10.46,0,0,1,.4,1.7c.1.4.2.7.3,1.1s.2,1.1.3,1.7c0,.2.1.4.1.6A5.49,5.49,0,0,1,192.48,131.64Z"/></g><path id="_Path_2" data-name="&lt;Path&gt;" class="cls-2" d="M119.88,182.74a83.4,83.4,0,0,1-23.1-165.2,24.72,24.72,0,0,1,1.1,4.7,19.72,19.72,0,0,1,.2,4.2A9.15,9.15,0,0,1,98,28a7.72,7.72,0,0,1-.2,1.5c0,.3-.1.6-.1.9v.1c-.1.6-.3,1.2-.4,1.8v.1a10.93,10.93,0,0,1-.5,1.7,1.42,1.42,0,0,0-.2.6l-.6,1.5c0,.1-.1.1-.1.2-.3.6-.6,1.1-.9,1.7-.2.3-.3.5-.5.8a3.51,3.51,0,0,1-.5.8,13.3,13.3,0,0,1-1.4,1.9,9,9,0,0,1-.9,1,.78.78,0,0,1-.4.4l-1.2,1.2c-.1.1-.2.1-.2.2a17.41,17.41,0,0,1-1.4,1.2c-.5.4-1.1.8-1.6,1.2-.3.2-.5.3-.8.5-.1,0-.1.1-.2.1a3,3,0,0,1-.8.4,4.67,4.67,0,0,1-1,.5c-.3.2-.7.3-1,.5h0A57,57,0,0,0,51.48,107a.75.75,0,0,0,.1.5,57,57,0,0,0,58.5,49.3,24.52,24.52,0,0,0,2.7-.2l2.9-.3a8.75,8.75,0,0,1,1.6-.2l1.5-.3h.2l1.5-.3a1.88,1.88,0,0,0,.8-.2.37.37,0,0,0,.3-.1,16,16,0,0,0,2.1-.5c.1,0,.3-.1.4-.1l2.2-.6c.8-.2,1.6-.5,2.3-.7h.1c.8-.3,1.5-.5,2.3-.8s1.4-.5,2.1-.8a58.26,58.26,0,0,0,8.6-4.5c1.3-.8,2.6-1.7,3.8-2.6.6-.5,1.2-.9,1.8-1.4,1.2-1,2.3-2,3.4-3l1.6-1.6c.5-.5,1-1.1,1.5-1.6l1.4-1.7a20.28,20.28,0,0,0,1.3-1.8c.4-.6.8-1.2,1.2-1.7l.1-.1a17.39,17.39,0,0,0,1.1-1.8,11.4,11.4,0,0,0,1-1.9c.7-1.3,1.2-2.6,1.8-3.9a15.87,15.87,0,0,0,.7-2,9.83,9.83,0,0,0,.5-1.6,28.64,28.64,0,0,0,.7-2.8,34.19,34.19,0,0,0,.8-8.4v-1.8h0v-.2a3.75,3.75,0,0,0-.1-1,11,11,0,0,0-.2-1.8v-.1a18.46,18.46,0,0,0-.4-2.3,10.46,10.46,0,0,0-.4-1.7v-.2a4.33,4.33,0,0,0-.1-.5v-1.4c0-.2.1-.3.1-.5a1.42,1.42,0,0,1,.2-.6c.1-.2.1-.4.2-.6a5.3,5.3,0,0,1,.6-1c.2-.3.5-.5.7-.8.2-.1.4-.3.6-.4C191,127.14,170,176,119.88,182.74Z"/><g id="_Group_3" data-name="&lt;Group&gt;"><path id="_Path_3" data-name="&lt;Path&gt;" class="cls-3" d="M108.58,76.54c-.1-1-.2-1.9-.3-2.8s-.1-1.9-.2-2.8v-2.8a24.37,24.37,0,0,1,.1-2.7,18,18,0,0,1,.2-2.2,8.75,8.75,0,0,1,.2-1.6l.3-1.8c.2-.9.3-1.8.5-2.7s.4-1.7.6-2.5a52.23,52.23,0,0,1,1.8-5.6,18.94,18.94,0,0,1,.9-2.1c.4-1,.8-2,1.3-3,.4-.8.7-1.5,1.1-2.2q1.65-3,3.6-6l1.5-2.1a37.46,37.46,0,0,1,2.6-3.3,5.24,5.24,0,0,1,1-1.1l2.7-3a9.43,9.43,0,0,1,1-1c.8-.8,1.6-1.6,2.5-2.4.5-.4,1-.9,1.5-1.3s.9-.7,1.3-1.1.9-.7,1.3-1.1c.7-.5,1.4-1.1,2.1-1.6.5-.4,1.1-.8,1.7-1.2.2-.1.3-.2.5-.3a6.73,6.73,0,0,1,1.1-.7,16.29,16.29,0,0,1,1.7-1.1,17.39,17.39,0,0,1,1.8-1.1c.6-.4,1.3-.7,1.9-1.1.9-.5,1.8-1,2.8-1.5a72.65,72.65,0,0,1,6.9-3.2c.4-.2.8-.3,1.2-.5.6-.2,1.2-.5,1.8-.7,1.6-.6,3.1-1.1,4.7-1.6a1.42,1.42,0,0,0,.6-.2l1.1-.3c.3-.1.6-.2,1-.3h0a9.36,9.36,0,0,1,1.6-.4c.2,0,.3-.1.5-.1a1.27,1.27,0,0,1,.6-.1l4.3-.9c.3-.1.7-.1,1-.2a1.7,1.7,0,0,1,.7-.1c.8-.1,1.5-.3,2.3-.4.4-.1.7-.1,1.1-.2h.2a7.72,7.72,0,0,1,1.5-.2l2.8-.3c2.7-.3,5.3-.5,8-.6a108,108,0,0,1,51,205h-.1c-.3.1-.5.3-.8.4a3,3,0,0,0-.8.4c-.1,0-.1.1-.2.1s-.3.1-.5.2a4.18,4.18,0,0,1-1,.4c-.1,0-.1,0-.2.1-.4.1-.8.3-1.2.4a16.06,16.06,0,0,1-3.8.8,5.7,5.7,0,0,1-1.3.1c-.4,0-.9.1-1.3.1a13.33,13.33,0,0,1-2,0h-.9a1.7,1.7,0,0,1-.7-.1,25.58,25.58,0,0,1-2.7-.5c-.4-.1-.8-.2-1.1-.3h-.1l-1-.3-2.4-.9a15.05,15.05,0,0,1-2.2-1.1c-.4-.2-.8-.5-1.3-.8-.2-.1-.4-.3-.6-.4a25.1,25.1,0,0,1-9.9-13.1,24.72,24.72,0,0,1-1.1-4.7,19.72,19.72,0,0,1-.2-4.2,9.15,9.15,0,0,1,.1-1.6,7.72,7.72,0,0,1,.2-1.5c0-.3.1-.6.1-.9v-.1c.1-.6.3-1.2.4-1.8V176a10.93,10.93,0,0,1,.5-1.7,1.42,1.42,0,0,0,.2-.6l.6-1.5c0-.1.1-.1.1-.2.3-.6.6-1.1.9-1.7.2-.3.3-.5.5-.8a3.51,3.51,0,0,1,.5-.8,13.3,13.3,0,0,1,1.4-1.9,9,9,0,0,1,.9-1,.78.78,0,0,1,.4-.4l1.2-1.2c.1-.1.2-.1.2-.2a17.41,17.41,0,0,1,1.4-1.2c.5-.4,1.1-.8,1.6-1.2.3-.2.5-.3.8-.5.1,0,.1-.1.2-.1a3,3,0,0,1,.8-.4,4.67,4.67,0,0,1,1-.5c.3-.2.7-.3,1-.5h0a57,57,0,0,0,31.6-58.2.75.75,0,0,0-.1-.5,57,57,0,0,0-58.5-49.3,24.52,24.52,0,0,0-2.7.2l-2.9.3a8.75,8.75,0,0,1-1.6.2l-1.5.3h-.2l-1.5.3a1.88,1.88,0,0,0-.8.2.37.37,0,0,0-.3.1,16,16,0,0,0-2.1.5c-.1,0-.3.1-.4.1l-2.2.6c-.8.2-1.6.5-2.3.7h-.1c-.8.3-1.5.5-2.3.8s-1.4.5-2.1.8a58.26,58.26,0,0,0-8.6,4.5c-1.3.8-2.6,1.7-3.8,2.6-.6.5-1.2.9-1.8,1.4-1.2,1-2.3,2-3.4,3l-1.6,1.6c-.5.5-1,1.1-1.5,1.6l-1.4,1.7a20.28,20.28,0,0,0-1.3,1.8c-.4.6-.8,1.2-1.2,1.7l-.1.1a17.39,17.39,0,0,0-1.1,1.8,11.4,11.4,0,0,0-1,1.9c-.7,1.3-1.2,2.6-1.8,3.9a15.87,15.87,0,0,0-.7,2,9.83,9.83,0,0,0-.5,1.6,28.64,28.64,0,0,0-.7,2.8,34.19,34.19,0,0,0-.8,8.4v1.8h0v.2a3.75,3.75,0,0,0,.1,1,11,11,0,0,0,.2,1.8v.1a18.46,18.46,0,0,0,.4,2.3,10.46,10.46,0,0,0,.4,1.7v.2a4.33,4.33,0,0,0,.1.5v1.4c0,.2-.1.3-.1.5a1.42,1.42,0,0,1-.2.6c-.1.2-.1.4-.2.6a5.3,5.3,0,0,1-.6,1c-.2.3-.5.5-.7.8-.2.1-.4.3-.6.4s-.4.3-.6.4a.37.37,0,0,1-.3.1c-.2.1-.4.1-.6.2a.37.37,0,0,0-.3.1c-.1,0-.3.1-.4.1a.75.75,0,0,0-.5.1,3.4,3.4,0,0,1-1-.1h-.2a3.36,3.36,0,0,1-1.4-.5,2.09,2.09,0,0,1-.6-.4.1.1,0,0,1-.1-.1h0l-.1-.1h0l-.1-.1a.1.1,0,0,1-.1-.1l-.2-.2a.35.35,0,0,0-.2-.1l-.3-.3c-.4-.4-.9-.8-1.3-1.2a46.83,46.83,0,0,1-3.8-3.9c-.4-.4-.7-.8-1.1-1.2a15,15,0,0,1-1.1-1.3,11.32,11.32,0,0,1-1-1.3,7.63,7.63,0,0,1-.8-1.1c-.5-.6-.9-1.3-1.4-2-.4-.5-.7-1.1-1.1-1.6a2.51,2.51,0,0,1-.4-.7,15.05,15.05,0,0,1-1-1.7c-.8-1.3-1.4-2.7-2.1-4.1,0-.1-.1-.1-.1-.2-.1-.3-.3-.7-.4-1-.3-.6-.5-1.2-.8-1.9a20.94,20.94,0,0,1-.8-2.3c-.3-.8-.5-1.6-.8-2.4-.1-.3-.1-.5-.2-.8a10.46,10.46,0,0,1-.4-1.7c-.1-.4-.2-.7-.3-1.1s-.2-1.1-.3-1.7c0-.2-.1-.4-.1-.6A6.69,6.69,0,0,1,108.58,76.54Z"/></g><path id="_Path_4" data-name="&lt;Path&gt;" class="cls-2" d="M181.18,25.44a83.45,83.45,0,0,1,23.1,165.3,24.72,24.72,0,0,1-1.1-4.7,19.72,19.72,0,0,1-.2-4.2,9.15,9.15,0,0,1,.1-1.6,7.72,7.72,0,0,1,.2-1.5c0-.3.1-.6.1-.9v-.1c.1-.6.3-1.2.4-1.8v-.1a10.93,10.93,0,0,1,.5-1.7,1.42,1.42,0,0,0,.2-.6l.6-1.5c0-.1.1-.1.1-.2.3-.6.6-1.1.9-1.7.2-.3.3-.5.5-.8a3.51,3.51,0,0,1,.5-.8,13.3,13.3,0,0,1,1.4-1.9,9,9,0,0,1,.9-1,.78.78,0,0,1,.4-.4L211,164c.1-.1.2-.1.2-.2a17.41,17.41,0,0,1,1.4-1.2c.5-.4,1.1-.8,1.6-1.2.3-.2.5-.3.8-.5.1,0,.1-.1.2-.1a3,3,0,0,1,.8-.4,4.67,4.67,0,0,1,1-.5c.3-.2.7-.3,1-.5h0a57,57,0,0,0,31.6-58.2.75.75,0,0,0-.1-.5A57,57,0,0,0,191,51.44a24.52,24.52,0,0,0-2.7.2l-2.9.3a8.75,8.75,0,0,1-1.6.2l-1.5.3h-.2l-1.5.3a1.88,1.88,0,0,0-.8.2.37.37,0,0,0-.3.1,16,16,0,0,0-2.1.5c-.1,0-.3.1-.4.1l-2.2.6c-.8.2-1.6.5-2.3.7h-.1c-.8.3-1.5.5-2.3.8s-1.4.5-2.1.8a58.26,58.26,0,0,0-8.6,4.5c-1.3.8-2.6,1.7-3.8,2.6-.6.5-1.2.9-1.8,1.4-1.2,1-2.3,2-3.4,3l-1.6,1.6c-.5.5-1,1.1-1.5,1.6l-1.4,1.7a20.28,20.28,0,0,0-1.3,1.8c-.4.6-.8,1.2-1.2,1.7l-.1.1a17.39,17.39,0,0,0-1.1,1.8,11.4,11.4,0,0,0-1,1.9c-.7,1.3-1.2,2.6-1.8,3.9a15.87,15.87,0,0,0-.7,2,9.83,9.83,0,0,0-.5,1.6,28.64,28.64,0,0,0-.7,2.8,34.19,34.19,0,0,0-.8,8.4v1.8h0v.2a3.75,3.75,0,0,0,.1,1,11,11,0,0,0,.2,1.8v.1a18.46,18.46,0,0,0,.4,2.3,10.46,10.46,0,0,0,.4,1.7v.2a4.33,4.33,0,0,0,.1.5v1.4c0,.2-.1.3-.1.5a1.42,1.42,0,0,1-.2.6c-.1.2-.1.4-.2.6a5.3,5.3,0,0,1-.6,1c-.2.3-.5.5-.7.8-.2.1-.4.3-.6.4C110.08,81,131.08,32.14,181.18,25.44Z"/></g></g></g></svg>