<?xml version="1.0" encoding="utf-8"?>
<!-- Generator: Adobe Illustrator 19.0.0, SVG Export Plug-In . SVG Version: 6.00 Build 0)  -->
<svg version="1.1" id="Layer_1" xmlns="http://www.w3.org/2000/svg" xmlns:xlink="http://www.w3.org/1999/xlink" x="0px" y="0px"
	 viewBox="-488 505 300 206.089" style="enable-background:new -488 505 300 206.089;" xml:space="preserve">
<style type="text/css">
	.st0{clip-path:url(#SVGID_1_);fill:#FFFFFF;}
	.st1{clip-path:url(#SVGID_1_);fill:#009EE2;}
	.st2{clip-path:url(#SVGID_1_);fill:#E20613;}
</style>
<title>Asset 1</title>
<g>
	<defs>
		<path id="SVGID_3_" d="M-297.497,635.401c0.318,2.355,0.405,3.891,0.447,5.852c0.405,15.442-5.775,31.004-17.398,43.464
			c-13.239,14.192-35.173,23.163-52.538,25.493c-21.204,2.846-43.504-1.293-62.572-10.91c-17.669-8.903-32.497-22.94-42.725-39.856
			c-9.977-16.551-15.539-35.723-15.714-55.045c-0.177-21.071,6.171-41.977,17.782-59.543c6.197-9.395,13.893-17.775,22.697-24.788
			c4.682-3.732,9.678-7.034,14.923-9.975c4.947-2.787,10.154-5.118,15.956-5.089c9.65,0.078,18.843,5.918,22.887,14.705
			c4.327,9.397,2.416,20.79-4.774,28.235c-3.969,4.087-9.26,6.232-13.982,9.243c-4.614,2.935-8.694,6.802-12.146,11.037
			c-6.918,8.471-11.281,18.859-12.391,29.75c-2.325,22.488,9.3,44.281,28.793,55.612c10.007,5.806,22.588,8.064,34.47,6.452
			c7.429-1,17.311-3.897,24.579-8.152c17.625-10.34,26.91-28.811,23.26-46.215c-0.07-0.38-0.16-0.763-0.272-1.141
			c-0.01-0.078-0.04-0.152-0.049-0.228c-0.04-0.152-0.061-0.308-0.082-0.464c-0.388-2.893,1.65-5.562,4.546-5.95
			c1.409-0.19,2.755,0.2,3.798,0.943l0.131,0.101c0.201,0.188,0.422,0.375,0.625,0.565c0.048,0.034,0.093,0.083,0.116,0.122
			C-306.35,609.248-299.324,621.78-297.497,635.401z M-378.503,580.695c-0.318-2.355-0.405-3.891-0.447-5.852
			c-0.405-15.442,5.775-31.004,17.398-43.464c13.239-14.192,35.173-23.163,52.538-25.493c21.204-2.846,43.504,1.293,62.572,10.91
			c17.669,8.903,32.497,22.94,42.725,39.856c9.977,16.551,15.539,35.723,15.714,55.045c0.177,21.071-6.171,41.977-17.782,59.543
			c-6.197,9.395-13.893,17.775-22.697,24.788c-4.682,3.732-9.678,7.034-14.923,9.975c-4.947,2.787-10.154,5.118-15.956,5.089
			c-9.65-0.078-18.843-5.918-22.887-14.705c-4.327-9.397-2.416-20.79,4.774-28.235c3.969-4.087,9.26-6.232,13.982-9.243
			c4.614-2.935,8.693-6.802,12.146-11.038c6.918-8.471,11.281-18.859,12.391-29.75c2.325-22.488-9.3-44.281-28.793-55.612
			c-10.007-5.806-22.588-8.064-34.47-6.452c-7.429,1-17.311,3.897-24.579,8.152c-17.625,10.34-26.91,28.811-23.26,46.215
			c0.07,0.38,0.16,0.763,0.272,1.141c0.01,0.078,0.04,0.152,0.049,0.228c0.04,0.152,0.061,0.308,0.082,0.464
			c0.388,2.893-1.65,5.563-4.546,5.95c-1.409,0.19-2.755-0.2-3.798-0.943l-0.131-0.101c-0.201-0.188-0.422-0.375-0.625-0.565
			c-0.048-0.034-0.093-0.083-0.116-0.122C-369.65,606.847-376.676,594.316-378.503,580.695z"/>
	</defs>
	<clipPath id="SVGID_1_">
		<use xlink:href="#SVGID_3_"  style="overflow:visible;"/>
	</clipPath>
	<path class="st0" d="M-380.347,722.129c-18.616,0-37.351-4.487-54.181-12.976c-19.376-9.763-35.697-24.978-47.199-44
		c-11.132-18.467-17.113-39.437-17.305-60.655c-0.193-22.965,6.772-46.306,19.611-65.729c6.822-10.342,15.245-19.541,25.027-27.334
		c4.976-3.966,10.495-7.657,16.402-10.968c5.36-3.021,12.639-6.5,21.247-6.5c14.281,0.114,27.164,8.407,33.018,21.127
		c6.231,13.532,3.474,29.814-6.86,40.515c-3.893,4.008-8.241,6.446-12.077,8.598c-1.403,0.786-2.727,1.529-3.91,2.284
		c-3.353,2.132-6.554,5.059-9.525,8.705c-5.632,6.895-9.076,15.155-9.966,23.895c-1.859,17.985,7.311,35.623,23.36,44.952
		c6.07,3.522,13.663,5.464,21.373,5.464c2.039,0,4.08-0.137,6.067-0.406c5.806-0.781,14.384-3.168,20.487-6.74
		c13.446-7.888,20.698-21.725,18.034-34.425l-0.051-0.258l-0.262-0.885l-0.052-0.432c-0.07-0.35-0.127-0.702-0.175-1.057
		c-0.579-4.322,0.561-8.613,3.21-12.08c2.648-3.468,6.487-5.697,10.809-6.275c0.711-0.096,1.447-0.145,2.175-0.145
		c3.418,0,6.7,1.05,9.49,3.037l0.742,0.562l0.544,0.485l1.361,0.98l0.391,0.628c12.134,11.32,19.93,25.975,22.004,41.439
		c0.386,2.869,0.494,4.837,0.542,7.082c0.483,18.421-6.748,36.633-20.362,51.228c-16.502,17.689-42.172,26.625-59.139,28.904
		C-370.368,721.799-375.357,722.129-380.347,722.129z"/>
	<path class="st0" d="M-259.415,722.129c-14.121-0.114-27.005-8.407-32.859-21.127c-6.231-13.532-3.474-29.814,6.86-40.515
		c3.893-4.008,8.241-6.446,12.077-8.598c1.403-0.786,2.727-1.529,3.91-2.284c3.353-2.132,6.554-5.059,9.527-8.706
		c5.63-6.893,9.074-15.154,9.964-23.894c1.859-17.985-7.311-35.623-23.359-44.952c-6.071-3.522-13.664-5.464-21.373-5.464
		c-2.039,0-4.081,0.137-6.068,0.406c-5.806,0.781-14.383,3.168-20.486,6.74c-13.447,7.889-20.699,21.725-18.035,34.425l0.047,0.231
		l0.239,0.812l0.057,0.412c0.075,0.361,0.137,0.726,0.188,1.093c1.205,9.011-5.084,17.244-14.009,18.439
		c-0.71,0.096-1.446,0.145-2.174,0.145c-3.417,0-6.697-1.049-9.487-3.035l-0.746-0.564l-0.509-0.454l-1.367-0.965l-0.419-0.674
		c-12.134-11.32-19.93-25.975-22.004-41.439c-0.386-2.869-0.494-4.837-0.542-7.082c-0.483-18.421,6.748-36.633,20.362-51.228
		c16.502-17.689,42.172-26.625,59.139-28.904c4.851-0.65,9.84-0.981,14.83-0.981c18.616,0,37.351,4.487,54.18,12.976
		c19.376,9.763,35.698,24.978,47.2,44c11.132,18.466,17.112,39.436,17.304,60.655c0.193,22.965-6.772,46.305-19.61,65.728
		c-6.822,10.342-15.245,19.541-25.028,27.335c-4.975,3.965-10.493,7.656-16.4,10.968c-5.362,3.021-12.641,6.5-21.248,6.5H-259.415z"
		/>
	<path class="st1" d="M-330.414,586.706l-16.79,48.91l-36.905-27.569v-76.21l-8.614-9.458
		c-44.468,6.734-75.533,47.926-69.524,92.707c6.076,45.264,47.711,76.993,92.937,70.925c49.718-6.673,70.474-55.163,45.357-87.323
		L-330.414,586.706z"/>
	<path class="st2" d="M-345.586,629.389l16.79-48.911l36.905,27.569v76.21l8.614,9.458c44.468-6.734,75.533-47.926,69.524-92.707
		c-6.076-45.264-47.711-76.993-92.937-70.925c-49.718,6.673-70.474,55.163-45.357,87.323L-345.586,629.389z"/>
</g>
</svg>
