<?xml version="1.0" encoding="utf-8"?>
<!-- Generator: Adobe Illustrator 24.0.1, SVG Export Plug-In . SVG Version: 6.00 Build 0)  -->
<svg version="1.1" id="Layer_1" xmlns="http://www.w3.org/2000/svg" xmlns:xlink="http://www.w3.org/1999/xlink" x="0px" y="0px"
	 viewBox="0 0 71.5 85" style="enable-background:new 0 0 71.5 85;" xml:space="preserve">
<style type="text/css">
	.st0{fill:#00AEEF;}
	.st1{fill:#4A4A4A;}
	.st2{fill:#ED1C24;}
</style>
<g id="XMLID_392_">
	<path id="XMLID_385_" class="st0" d="M71.5,21.6c0,0-0.7,0-1.9,0c-1.2,0-3,0-5.3-0.1c-2.3,0-5.1,0.1-8.2,0.6
		c-1.6,0.2-3.2,0.6-4.8,1.2s-3.3,1.4-4.9,2.4c-1.5,1-3.1,2.3-3.5,4c-0.2,0.8-0.1,1.6,0.3,2.4c0.3,0.6,1.1,1.3,2,1.7
		c0.4,0.2,0.9,0.5,1.4,0.7s1.1,0.4,1.6,0.6c1.1,0.4,2.2,0.8,3.3,1.3c2.2,0.8,4.5,1.7,6.8,2.7c0.6,0.3,1.2,0.5,1.7,0.8
		c0.6,0.3,1.2,0.5,1.7,0.8c1.2,0.6,2.3,1.3,3.4,2.2s2.2,2.1,2.7,3.8c0.3,0.8,0.3,1.8,0.2,2.6c0,0.2-0.1,0.4-0.1,0.6l-0.1,0.3v0.2
		c0-0.1-0.1,0.2-0.1,0.2v0.1c-0.1,0.3-0.2,0.5-0.5,1c-0.9,1.6-2.1,2.6-3.5,3.4c-1.4,0.7-2.8,1.2-4.2,1.5s-2.8,0.5-4.1,0.6
		c-1.3,0.2-2.7,0.3-4,0.4c-2.6,0.2-5.2,0.4-7.8,0.6C41,58.4,38.4,58.6,36,59c-2.4,0.4-4.7,1-6.5,2.1l-0.2,0.1l0,0c0.2-0.1,0,0,0.1,0
		l-0.1,0.1l-0.4,0.3c-0.2,0.2-0.2,0.2-0.3,0.3c-0.3,0.3-0.4,0.5-0.5,0.7c-0.2,0.4-0.1,0.8,0.2,1.2c0.1,0.2,0.4,0.5,0.6,0.7
		c0.2,0.1,0.3,0.2,0.4,0.3c0.3,0.2,0.4,0.3,0.6,0.4c0.9,0.6,2,1.1,3.2,2c0.6,0.4,1.2,1,1.8,1.6c0.6,0.7,1.1,1.6,1.5,2.5
		c0.1,0.3,0.1,0.5,0.2,0.8l0.1,0.5v0.2V73v0.1v0.2c0,0.3,0,0.6,0,0.9s-0.1,0.6-0.1,0.8c0,0.2-0.1,0.5-0.2,0.7
		c-0.2,0.5-0.3,0.9-0.5,1.3c-0.8,1.7-2,2.8-3.1,3.7c-1.1,0.9-2.3,1.5-3.4,2c-0.6,0.3-1.1,0.5-1.8,0.7L26.9,84L26,84.2
		c-1.2,0.3-2.3,0.5-3.5,0.6c-4.5,0.5-8.7-0.4-12-1.7c-3-1.2-6-2.5-8-4.6c-1-1-1.8-2.2-2.2-3.3L0.2,75l-0.1-0.2v-0.1
		c0-0.2-0.1-0.3-0.1-0.5c0-0.2,0-0.4,0-0.7c0-0.6,0.2-1.1,0.4-1.5c0.4-0.9,1-1.4,1.4-1.6c0.2-0.1,0.4-0.2,0.5-0.2
		C2.5,70,2.5,70,2.5,70l0.7,1.8c0,0-0.1,0.1-0.1,0.2C3,72.1,3,72.4,3,72.7c0,0.2,0.1,0.3,0.2,0.5c0,0.1,0.1,0.2,0.1,0.2l0,0l0.1,0.1
		v0.1c0,0.1,0-0.1,0-0.1l0,0l0,0l0.1,0.1c0.4,0.5,1,0.9,1.8,1.3c1.6,0.8,4,1.5,7.1,2.2c0.8,0.2,1.4,0.3,2.2,0.5
		c0.7,0.1,1.5,0.2,2.3,0.3c1.5,0.1,3.2,0.2,4.8,0c0.8-0.1,1.7-0.3,2.5-0.5l0.6-0.2l0.7-0.2c0.3-0.1,0.8-0.3,1.1-0.4
		c0.8-0.3,1.5-0.8,2.2-1.2c0.6-0.4,1.1-0.9,1.3-1.3c0.1-0.1,0.1-0.2,0.1-0.2v-0.1c0,0,0-0.1,0,0c0,0,0,0,0,0.1l0,0v-0.1v-0.2v-0.2
		v-0.1v-0.1c0.1,0.5,0,0.1,0,0.2v-0.1c0-0.2-0.3-0.7-1-1.3c-0.7-0.6-1.6-1.2-2.7-2.1c-0.3-0.2-0.7-0.5-0.9-0.7
		c-0.3-0.3-0.6-0.6-0.9-0.9c-0.6-0.7-1.1-1.4-1.5-2.3s-0.7-1.9-0.7-2.9c0-1.1,0.3-2.1,0.7-3c0.5-0.9,1.1-1.7,1.8-2.3
		c0.3-0.3,0.8-0.6,1.1-0.9l0.4-0.2l0.1-0.1l0.2-0.1h0.1l0.3-0.1c2.7-1.3,5.5-1.9,8.2-2.2c2.7-0.3,5.3-0.4,7.9-0.5
		c2.6-0.1,5.2-0.2,7.9-0.3c1.3-0.1,2.6-0.1,3.9-0.2c1.3-0.1,2.6-0.2,3.7-0.4c1.2-0.2,2.3-0.5,3.2-1s1.7-1.2,2.2-1.9
		c0.1-0.1,0.2-0.5,0.4-0.7l0.2-0.6c0-0.4,0.1-0.8,0-1.2c-0.2-0.8-0.8-1.6-1.6-2.3c-1.6-1.5-3.9-2.6-6.1-3.6c-2.2-1-4.4-2-6.6-2.9
		c-1.1-0.5-2.2-0.9-3.2-1.4c-0.5-0.2-1.1-0.5-1.6-0.7s-1.1-0.5-1.6-0.8c-1.1-0.6-2.1-1.4-2.8-2.8c-0.5-1.1-0.7-2.6-0.3-3.9
		s1.1-2.2,1.9-3c0.8-0.8,1.7-1.4,2.6-1.9c1.8-1,3.6-1.8,5.3-2.3c1.7-0.6,3.5-0.9,5.1-1.1c3.2-0.4,6.1-0.3,8.4-0.3
		c2.3,0.1,4.1,0.2,5.3,0.4c1.2,0.1,1.9,0.3,1.9,0.3L71.5,21.6z"/>
	
		<rect id="XMLID_380_" x="-7.9" y="30.5" transform="matrix(0.4439 -0.8961 0.8961 0.4439 -20.838 37.9218)" class="st1" width="56.1" height="10.5"/>
	<path id="XMLID_383_" class="st2" d="M37.6,0.5L37.6,0.5c-2.6-1.3-5.7-0.2-7,2.4l-1.3,2.6l9.4,4.7L40,7.6C41.2,5,40.2,1.8,37.6,0.5
		z"/>
	<polygon id="XMLID_395_" class="st0" points="11,65.9 5.5,71.5 0.6,68.9 1.6,61.3 	"/>
	<path id="XMLID_396_" class="st0" d="M5.5,71.5l-2.9,2.9c-1,1-2.8,0.2-2.6-1.3l0.6-4.2L5.5,71.5z"/>
</g>
</svg>
