<?xml version="1.0" encoding="utf-8"?>
<!-- Generator: Adobe Illustrator 24.0.1, SVG Export Plug-In . SVG Version: 6.00 Build 0)  -->
<svg version="1.1" id="Layer_1" xmlns="http://www.w3.org/2000/svg" xmlns:xlink="http://www.w3.org/1999/xlink" x="0px" y="0px"
	 viewBox="0 0 148.2 85" style="enable-background:new 0 0 148.2 85;" xml:space="preserve">
<style type="text/css">
	.st0{fill:#00AEEF;}
	.st1{fill:#4A4A4A;}
	.st2{fill:#FFFFFF;}
</style>
<g id="XMLID_232_">
	<rect id="XMLID_621_" x="69.3" y="33.9" class="st0" width="78.9" height="51"/>
	<rect id="XMLID_620_" x="69.3" y="0" class="st1" width="45" height="28.2"/>
	<rect id="XMLID_619_" x="5.7" y="0" class="st1" width="57.7" height="85"/>
	<rect id="XMLID_618_" x="5.7" y="0" class="st0" width="53.6" height="85"/>
	<path id="XMLID_617_" class="st1" d="M9.9,7.3H1.5C0.7,7.3,0,6.6,0,5.8l0,0C0,5,0.7,4.3,1.5,4.3h8.4c0.8,0,1.5,0.7,1.5,1.5l0,0
		C11.4,6.6,10.7,7.3,9.9,7.3z"/>
	<path id="XMLID_616_" class="st1" d="M9.9,13.9H1.5c-0.8,0-1.5-0.7-1.5-1.5l0,0c0-0.8,0.7-1.5,1.5-1.5h8.4c0.8,0,1.5,0.7,1.5,1.5
		l0,0C11.4,13.3,10.7,13.9,9.9,13.9z"/>
	<path id="XMLID_615_" class="st1" d="M9.9,20.6H1.5c-0.8,0-1.5-0.7-1.5-1.5l0,0c0-0.8,0.7-1.5,1.5-1.5h8.4c0.8,0,1.5,0.7,1.5,1.5
		l0,0C11.4,19.9,10.7,20.6,9.9,20.6z"/>
	<path id="XMLID_614_" class="st1" d="M9.9,27.3H1.5c-0.8,0-1.5-0.7-1.5-1.5l0,0c0-0.8,0.7-1.5,1.5-1.5h8.4c0.8,0,1.5,0.7,1.5,1.5
		l0,0C11.4,26.6,10.7,27.3,9.9,27.3z"/>
	<path id="XMLID_613_" class="st1" d="M9.9,33.9H1.5c-0.8,0-1.5-0.7-1.5-1.5l0,0c0-0.8,0.7-1.5,1.5-1.5h8.4c0.8,0,1.5,0.7,1.5,1.5
		l0,0C11.4,33.2,10.7,33.9,9.9,33.9z"/>
	<path id="XMLID_612_" class="st1" d="M9.9,40.6H1.5c-0.8,0-1.5-0.7-1.5-1.5l0,0c0-0.8,0.7-1.5,1.5-1.5h8.4c0.8,0,1.5,0.7,1.5,1.5
		l0,0C11.4,39.9,10.7,40.6,9.9,40.6z"/>
	<path id="XMLID_611_" class="st1" d="M9.9,47.2H1.5c-0.8,0-1.5-0.7-1.5-1.5l0,0c0-0.8,0.7-1.5,1.5-1.5h8.4c0.8,0,1.5,0.7,1.5,1.5
		l0,0C11.4,46.6,10.7,47.2,9.9,47.2z"/>
	<path id="XMLID_610_" class="st1" d="M9.9,53.9H1.5c-0.8,0-1.5-0.7-1.5-1.5l0,0c0-0.8,0.7-1.5,1.5-1.5h8.4c0.8,0,1.5,0.7,1.5,1.5
		l0,0C11.4,53.2,10.7,53.9,9.9,53.9z"/>
	<path id="XMLID_609_" class="st1" d="M9.9,60.6H1.5c-0.8,0-1.5-0.7-1.5-1.5l0,0c0-0.8,0.7-1.5,1.5-1.5h8.4c0.8,0,1.5,0.7,1.5,1.5
		l0,0C11.4,59.9,10.7,60.6,9.9,60.6z"/>
	<path id="XMLID_608_" class="st1" d="M9.9,67.2H1.5c-0.8,0-1.5-0.7-1.5-1.5l0,0c0-0.8,0.7-1.5,1.5-1.5h8.4c0.8,0,1.5,0.7,1.5,1.5
		l0,0C11.4,66.5,10.7,67.2,9.9,67.2z"/>
	<path id="XMLID_607_" class="st1" d="M9.9,73.9H1.5c-0.8,0-1.5-0.7-1.5-1.5l0,0c0-0.8,0.7-1.5,1.5-1.5h8.4c0.8,0,1.5,0.7,1.5,1.5
		l0,0C11.4,73.2,10.7,73.9,9.9,73.9z"/>
	<path id="XMLID_606_" class="st1" d="M9.9,80.5H1.5C0.7,80.5,0,79.8,0,79l0,0c0-0.8,0.7-1.5,1.5-1.5h8.4c0.8,0,1.5,0.7,1.5,1.5l0,0
		C11.4,79.9,10.7,80.5,9.9,80.5z"/>
	<g id="XMLID_603_">
		<path id="XMLID_605_" class="st1" d="M38,34.4c0-0.1,0-0.1,0-0.2s0-0.1,0-0.2l0,0v-0.1v-0.1v-0.1c0,0,0,0,0-0.1s0-0.1-0.1-0.2
			c0-0.1,0-0.1-0.1-0.2c0,0,0-0.1-0.1-0.1c0,0,0,0,0-0.1l0,0c0-0.1-0.1-0.2-0.1-0.3c0,0,0-0.1-0.1-0.1l0,0c0,0,0-0.1-0.1-0.1
			l-0.1-0.1c0,0,0-0.1-0.1-0.1c0,0,0-0.1-0.1-0.1c0,0,0-0.1-0.1-0.1L36.9,32c-0.1-0.1-0.2-0.2-0.3-0.3l-0.1-0.1l0,0l0,0l0,0l0,0l0,0
			l0,0l0,0l0,0l0,0l0,0l0,0h-0.1l0,0c0,0,0,0-0.1,0l0,0l0,0l0,0l0,0l0,0l0,0l0,0c0,0,0,0-0.1,0.1c0,0,0,0,0,0.1l0,0l0,0l0,0l0,0l0,0
			l0,0l0,0l0,0l0,0l0,0v0.1c0,0.1,0,0.1,0,0.2l0,0v0.1c0,0,0,0,0,0.1l0,0l0,0l0,0v0.1c0,0.2,0,0.4-0.1,0.6c0,0.1,0,0.1-0.1,0.2v0.1
			c0,0,0,0.1-0.1,0.1c0,0.1-0.1,0.2-0.1,0.3c0,0,0,0.1-0.1,0.1l-0.1,0.1l0,0L35.5,34l-0.1,0.1l-0.1,0.1l-0.1,0.1l-0.1,0.1
			c-0.1,0.1-0.2,0.1-0.2,0.2l-0.1,0.1c-0.1,0.1-0.2,0.1-0.3,0.2c-0.2,0.1-0.4,0.2-0.6,0.3c0,0-0.1,0-0.1,0.1c-0.1,0-0.1,0-0.2,0.1
			l0,0c-0.1,0-0.1,0-0.2,0.1c-0.1,0-0.1,0-0.2,0l0,0h-0.1l0,0c0,0,0,0-0.1,0h-0.1l0,0l0,0h-0.1h-0.1c-0.1,0-0.1,0-0.2,0
			s-0.1,0-0.2,0c-2.1,0.1-3.9-1.4-4.2-3.5l0,0c-0.2-1.8,0.7-3.4,2.3-4.2l0,0c0,0,0,0,0.1,0c0,0,0,0,0.1,0c0,0,0,0,0.1,0l0,0
			c0,0,0,0,0.1,0l0.1-0.1l0.1-0.1l0,0l0.1-0.1l0,0c0,0,0,0,0.1-0.1l0.1-0.1c0,0,0,0,0-0.1c0,0,0,0,0-0.1c0,0,0-0.1,0.1-0.1l0,0v-0.1
			l0,0v-0.1l0,0v-0.1l0,0c0,0,0,0,0-0.1v-0.1v-0.1c0-0.1,0-0.2,0-0.3c0-0.1,0-0.2-0.1-0.3c-0.1-0.4-0.4-0.7-0.7-0.9l0,0
			c0,0-0.1,0-0.1-0.1c-0.1,0-0.1-0.1-0.2-0.1s-0.1,0-0.2-0.1c0,0,0,0-0.1,0l0,0h-0.1c-0.1,0-0.1,0-0.2,0c0,0,0,0-0.1,0
			c0,0,0,0-0.1,0h-0.1h-0.1h-0.1c-0.1,0-0.2,0-0.3,0.1h-0.1l0,0c0,0,0,0-0.1,0l0,0l0,0c0,0,0,0-0.1,0c0,0,0,0-0.1,0l0,0
			c-2.9,1.4-4.7,4.6-4.3,8c0.5,4,4,6.8,7.9,6.7c0.2,0,0.4,0,0.6,0c0.1,0,0.1,0,0.2,0H33l0,0h0.1c0.1,0,0.1,0,0.2,0l0,0
			c0,0,0,0,0.1,0s0.2,0,0.3-0.1l0,0l0,0h0.1l0,0c0,0,0,0,0.1,0H34l0,0c0.1,0,0.2-0.1,0.3-0.1h0.1h0.1c0.2-0.1,0.3-0.1,0.5-0.2
			c0.1,0,0.1-0.1,0.2-0.1l0.1-0.1l0.1-0.1l0.1-0.1c0,0,0.1,0,0.1-0.1l0,0l0.1-0.1c0.1,0,0.1-0.1,0.2-0.1c0,0,0.1,0,0.1-0.1l0.1-0.1
			l0.1-0.1c0.1-0.1,0.1-0.1,0.2-0.2c0,0,0,0,0.1-0.1s0.1-0.1,0.2-0.2c0,0,0-0.1,0.1-0.1c0.1-0.1,0.1-0.2,0.2-0.2
			c0-0.1,0.1-0.1,0.1-0.2c0.1-0.1,0.2-0.3,0.3-0.4c0-0.1,0.1-0.1,0.1-0.2s0.1-0.1,0.1-0.2c0,0,0-0.1,0.1-0.1
			c0.1-0.1,0.1-0.3,0.1-0.4s0-0.1,0-0.2s0-0.1,0-0.2v-0.1v-0.1c0-0.1,0-0.1,0-0.2s0-0.1,0-0.2l0,0c0-0.1,0-0.1,0-0.2
			C38,34.5,38,34.5,38,34.4z"/>
		<path id="XMLID_604_" class="st1" d="M45.6,31.5c-0.5-4-4-6.8-7.9-6.7c-0.2,0-0.4,0-0.6,0c-0.1,0-0.1,0-0.2,0h-0.1l0,0h-0.1
			c-0.1,0-0.1,0-0.2,0l0,0c0,0,0,0-0.1,0s-0.2,0-0.3,0.1l0,0l0,0H36l0,0c0,0,0,0-0.1,0h-0.1l0,0c-0.1,0-0.2,0.1-0.3,0.1h-0.1h-0.1
			c-0.2,0.1-0.3,0.1-0.5,0.2c-0.1,0-0.1,0.1-0.2,0.1l-0.1,0.1l-0.1,0.1l-0.1,0.1c0,0-0.1,0-0.1,0.1l0,0l-0.1,0.1
			c-0.1,0-0.1,0.1-0.2,0.1c0,0-0.1,0-0.1,0.1l-0.1,0.1l-0.1,0.1c-0.1,0.1-0.1,0.1-0.2,0.2c0,0,0,0-0.1,0.1s-0.1,0.1-0.2,0.2
			c0,0,0,0.1-0.1,0.1c-0.1,0.1-0.1,0.2-0.2,0.2c0,0.1-0.1,0.1-0.1,0.2c-0.1,0.1-0.2,0.3-0.3,0.4c0,0.1-0.1,0.1-0.1,0.2
			s-0.1,0.1-0.1,0.2c0,0,0,0.1-0.1,0.1C32,28.2,32,28.4,32,28.5s0,0.1,0,0.2s0,0.1,0,0.2V29v0.1c0,0.1,0,0.1,0,0.2s0,0.1,0,0.2l0,0
			c0,0.1,0,0.1,0,0.2s0,0.1,0,0.2s0,0.1,0,0.2s0,0.1,0,0.2l0,0v0.1v0.1v0.1c0,0,0,0,0,0.1s0,0.1,0.1,0.2c0,0.1,0,0.1,0.1,0.2
			c0,0,0,0.1,0.1,0.1c0,0,0,0,0,0.1l0,0c0,0.1,0.1,0.2,0.1,0.3c0,0,0,0.1,0.1,0.1l0,0c0,0,0,0.1,0.1,0.1l0.1,0.1c0,0,0,0.1,0.1,0.1
			c0,0,0,0.1,0.1,0.1c0,0,0,0.1,0.1,0.1l0.1,0.1c0.1,0.1,0.2,0.2,0.3,0.3l0.1,0.1l0,0l0,0l0,0l0,0l0,0l0,0l0,0l0,0l0,0l0,0l0,0h0.1
			l0,0c0,0,0,0,0.1,0l0,0l0,0l0,0l0,0l0,0l0,0l0,0c0,0,0,0,0.1-0.1c0,0,0,0,0-0.1l0,0l0,0l0,0l0,0l0,0l0,0l0,0l0,0l0,0l0,0v-0.1
			c0-0.1,0-0.1,0-0.2l0,0v-0.1c0,0,0,0,0-0.1l0,0l0,0l0,0v-0.1c0-0.2,0-0.4,0.1-0.6c0-0.1,0-0.1,0.1-0.2V31c0,0,0-0.1,0.1-0.1
			c0-0.1,0.1-0.2,0.1-0.3c0,0,0-0.1,0.1-0.1l0.1-0.1l0,0l0.1-0.1l0.1-0.1l0.1-0.1l0.1-0.1l0.1-0.1c0.1-0.1,0.2-0.1,0.2-0.2l0.1-0.1
			c0.1-0.1,0.2-0.1,0.3-0.2c0.2-0.1,0.4-0.2,0.6-0.3c0,0,0.1,0,0.1-0.1c0.1,0,0.1,0,0.2-0.1l0,0c0.1,0,0.1,0,0.2-0.1
			c0.1,0,0.1,0,0.2,0l0,0h0.1l0,0c0,0,0,0,0.1,0h0.1l0,0l0,0h0.1h0.1c0.1,0,0.1,0,0.2,0s0.1,0,0.2,0c2.1-0.1,3.9,1.4,4.2,3.5l0,0
			c0.2,1.8-0.7,3.4-2.3,4.2l0,0c0,0,0,0-0.1,0c0,0,0,0-0.1,0c0,0,0,0-0.1,0l0,0c0,0,0,0-0.1,0l-0.1,0.1L39,36.7l0,0l-0.1,0.1l0,0
			c0,0,0,0-0.1,0.1L38.7,37c0,0,0,0,0,0.1c0,0,0,0,0,0.1c0,0,0,0.1-0.1,0.1l0,0v0.1l0,0v0.1l0,0v0.1l0,0c0,0,0,0,0,0.1v0.1v0.1
			c0,0.1,0,0.2,0,0.3c0,0.1,0,0.2,0.1,0.3c0.1,0.4,0.4,0.7,0.7,0.9l0,0c0,0,0.1,0,0.1,0.1c0.1,0,0.1,0.1,0.2,0.1s0.1,0,0.2,0.1
			c0,0,0,0,0.1,0l0,0h0.1c0.1,0,0.1,0,0.2,0c0,0,0,0,0.1,0c0,0,0,0,0.1,0h0.1h0.1h0.1c0.1,0,0.2,0,0.3-0.1h0.1l0,0c0,0,0,0,0.1,0
			l0,0l0,0c0,0,0,0,0.1,0c0,0,0,0,0.1,0l0,0C44.3,38,46.1,34.9,45.6,31.5z"/>
	</g>
	<g id="XMLID_596_">
		<path id="XMLID_524_" class="st1" d="M22.3,50.1c0.1-1.3,0.5-2.3,1.5-3.2c-0.3,0-0.7-0.1-1-0.1c0.5,1.2,1.1,4,2.8,4.1
			c2.5,0.2,1.9-3.6,3.9-3.9c-0.3-0.1-0.5-0.3-0.8-0.4c0.2,0.9,0.5,2.7,1.6,2.9c1.4,0.2,2.9-2.4,3.6-3.2c-0.3,0-0.7-0.1-1-0.1
			c0.7,1.2-0.2,3.5,1.5,4.2c1.5,0.7,2.2-1.1,3.1-1.9c0.5-0.4,0.5-0.8,1.1-0.2c0.2,0.2,0.2,0.7,0.4,1c0.2,0.3,0.4,0.6,0.8,0.7
			c1.4,0.5,2.9-1.8,3.7-2.6c-0.3,0-0.6,0-0.9,0c0.9,1,0.6,4.5,3.1,3.1c0.6-0.3,0.8-1.1,1.4-1.5c0.9-0.5,0.4-0.5,0.9,0.2
			c0.4,0.6,0.4,1.1,1.2,1.3c0.3,0.1,0.6,0,0.7-0.3c0.1-0.2,0.3-0.5,0.4-0.7c0.4-0.7-0.7-1.3-1.1-0.6c-0.1,0.2-0.3,0.5-0.4,0.7
			c0.2-0.1,0.5-0.2,0.7-0.3c-1-0.3-0.3-2.6-2.1-2.2c-0.9,0.2-1.6,2.2-2.2,2.2c-0.8,0-1.2-2.2-1.7-2.8c-0.2-0.2-0.7-0.2-0.9,0
			c-0.4,0.4-1.5,1.9-2,2c-1,0.1-0.7-0.5-1-1.1s-0.8-1-1.5-1c-1,0.1-1.2,1.3-2,1.8c-0.4,0.8-0.9,0.8-1.7,0c0-0.4,0-0.8,0-1.3
			c-0.1-0.6-0.2-0.9-0.5-1.4c-0.2-0.3-0.7-0.4-1-0.1c-0.5,0.6-1.2,1.7-1.8,2.1c-0.3,0.7-0.6,0.7-1,0.1c-0.2-0.4-0.3-0.9-0.3-1.3
			c-0.1-0.4-0.5-0.5-0.8-0.4c-0.9,0.1-1.5,0.7-1.9,1.5c-0.4,0.7-0.5,2.5-2.1,1.7c-0.4-0.2-1-2.4-1.3-2.9c-0.2-0.4-0.7-0.4-1-0.1
			c-1.2,1.1-1.8,2.4-1.9,4.1C21,50.9,22.2,50.9,22.3,50.1L22.3,50.1z"/>
	</g>
	<rect id="XMLID_595_" x="69.3" y="0" class="st2" width="45" height="25.1"/>
	<g id="XMLID_588_">
		<path id="XMLID_523_" class="st0" d="M74.2,13.4c4.3,0,8.6,0,12.8,0c0.8,0,0.8-1.3,0-1.3c-4.3,0-8.6,0-12.8,0
			C73.4,12.2,73.4,13.4,74.2,13.4L74.2,13.4z"/>
	</g>
	<g id="XMLID_581_">
		<path id="XMLID_522_" class="st0" d="M74.2,16.1c5.5,0,11,0,16.4,0c0.8,0,0.8-1.3,0-1.3c-5.5,0-11,0-16.4,0
			C73.4,14.8,73.4,16.1,74.2,16.1L74.2,16.1z"/>
	</g>
	<g id="XMLID_574_">
		<path id="XMLID_521_" class="st0" d="M74.2,18.8c5.1,0,10.1,0,15.2,0c0.8,0,0.8-1.3,0-1.3c-5.1,0-10.1,0-15.2,0
			C73.4,17.5,73.4,18.8,74.2,18.8L74.2,18.8z"/>
	</g>
	<g id="XMLID_567_">
		<path id="XMLID_520_" class="st0" d="M74.2,21.4c5.9,0,11.9,0,17.8,0c0.8,0,0.8-1.3,0-1.3c-5.9,0-11.9,0-17.8,0
			C73.4,20.2,73.4,21.4,74.2,21.4L74.2,21.4z"/>
	</g>
	<g id="XMLID_564_">
		<path id="XMLID_566_" class="st0" d="M79.2,6.9L79.2,6.9c0-0.1,0-0.1,0-0.2l0,0c0,0,0,0,0-0.1l0,0c0,0,0,0,0-0.1l0,0V6.4V6.3
			c0,0,0,0,0-0.1l0,0l0,0c0,0,0-0.1-0.1-0.1c0,0,0,0,0-0.1l0,0c0,0,0,0,0-0.1c0,0,0,0,0-0.1l0,0l0,0l0,0l0,0L79,5.7l0,0l0,0l0,0l0,0
			l0,0l0,0l0,0l0,0l0,0l0,0l0,0l0,0l0,0l0,0l0,0l0,0l0,0l0,0l0,0l0,0l0,0l0,0l0,0l0,0l0,0l0,0l0,0l0,0l0,0l0,0l0,0l0,0l0,0l0,0
			c0,0,0,0,0,0.1c0,0,0,0,0,0.1l0,0c0,0,0,0,0,0.1l0,0l0,0l0,0l0,0c0,0,0,0,0,0.1s0,0.2,0,0.3v0.1c0,0,0,0,0,0.1c0,0,0,0,0,0.1
			c0,0,0,0.1-0.1,0.1c0,0,0,0,0,0.1c0,0,0,0,0,0.1l0,0c0,0,0,0,0,0.1c0,0,0,0,0,0.1c0,0,0,0,0,0.1c0,0,0,0,0,0.1c0,0,0,0-0.1,0.1
			l-0.1,0.1c0,0,0,0-0.1,0l-0.1,0.1c-0.1,0.1-0.2,0.1-0.3,0.1c0,0,0,0-0.1,0c0,0,0,0-0.1,0l0,0h-0.1c0,0,0,0-0.1,0l0,0
			c0,0,0,0-0.1,0l0,0l0,0l0,0l0,0l0,0c0,0,0,0-0.1,0c0,0,0,0-0.1,0h-0.1h-0.1c-0.9,0-1.8-0.7-1.9-1.6l0,0c-0.1-0.8,0.3-1.6,1-1.9
			l0,0l0,0l0,0l0,0l0,0l0,0c0,0,0,0,0.1,0l0,0l0,0l0,0l0,0l0,0c0,0,0,0,0-0.1l0,0l0,0c0,0,0,0,0-0.1l0,0l0,0l0,0c0,0,0,0,0-0.1l0,0
			c0,0,0,0,0-0.1l0,0l0,0l0,0c0,0,0,0,0-0.1V3.7c0-0.1,0-0.1,0-0.2c-0.1-0.2-0.2-0.3-0.3-0.4l0,0l0,0c0,0,0,0-0.1,0H76l0,0l0,0l0,0
			h-0.1l0,0l0,0c0,0,0,0-0.1,0l0,0l0,0h-0.1l0,0l0,0l0,0l0,0l0,0l0,0l0,0l0,0c-1.3,0.6-2.1,2.1-1.9,3.6c0.2,1.8,1.8,3.1,3.6,3
			c0.1,0,0.2,0,0.3,0h0.1l0,0l0,0l0,0h0.1l0,0l0,0H78l0,0l0,0c0,0,0,0,0.1,0l0,0l0,0l0,0l0,0c0.1,0,0.1,0,0.2-0.1c0,0,0,0,0.1,0l0,0
			c0.1,0,0.2-0.1,0.2-0.1h0.1c0,0,0,0,0.1,0c0,0,0,0,0.1,0c0,0,0,0,0.1,0l0,0l0,0c0,0,0,0,0.1,0c0,0,0,0,0.1-0.1l0,0l0,0l0,0
			l0.1-0.1l0,0l0.1-0.1l0,0l0.1-0.1c0,0,0,0,0-0.1s0.1-0.1,0.1-0.2c0,0,0,0,0-0.1V8.6c0,0,0,0,0-0.1s0-0.1,0.1-0.2V8.2V8.1
			c0,0,0,0,0-0.1c0,0,0,0,0-0.1c0,0,0,0,0-0.1V7.7l0,0C79.2,7.1,79.2,7.1,79.2,6.9C79.2,7,79.2,7,79.2,6.9z"/>
		<path id="XMLID_565_" class="st0" d="M82.6,5.6c-0.2-1.8-1.8-3.1-3.6-3c-0.1,0-0.2,0-0.3,0h-0.1l0,0l0,0l0,0h-0.1l0,0l0,0h-0.1
			l0,0l0,0c0,0,0,0-0.1,0l0,0l0,0l0,0l0,0c-0.1,0-0.1,0-0.2,0.1c0,0,0,0-0.1,0l0,0c-0.1,0-0.2,0.1-0.2,0.1h-0.1c0,0,0,0-0.1,0
			c0,0,0,0-0.1,0c0,0,0,0-0.1,0l0,0l0,0c0,0,0,0-0.1,0c0,0,0,0-0.1,0.1l0,0l0,0l0,0L77.1,3l0,0L77,3.1l0,0l-0.1,0.1c0,0,0,0,0,0.1
			s-0.1,0.1-0.1,0.2c0,0,0,0,0,0.1v0.1c0,0,0,0,0,0.1s0,0.1-0.1,0.2v0.1v0.1c0,0,0,0,0,0.1c0,0,0,0,0,0.1c0,0,0,0,0,0.1v0.1l0,0v0.1
			v0.1v0.1V5l0,0c0,0,0,0,0,0.1l0,0c0,0,0,0,0,0.1l0,0v0.1v0.1c0,0,0,0,0,0.1l0,0l0,0c0,0,0,0.1,0.1,0.1c0,0,0,0,0,0.1l0,0
			c0,0,0,0,0,0.1c0,0,0,0,0,0.1l0,0l0,0l0,0l0,0L76.9,6l0,0l0,0l0,0l0,0l0,0l0,0l0,0l0,0l0,0l0,0l0,0l0,0l0,0l0,0l0,0l0,0l0,0l0,0
			l0,0l0,0l0,0l0,0l0,0l0,0l0,0l0,0l0,0l0,0l0,0l0,0l0,0l0,0l0,0l0,0c0,0,0,0,0-0.1c0,0,0,0,0-0.1l0,0c0,0,0,0,0-0.1l0,0l0,0l0,0
			l0,0c0,0,0,0,0-0.1s0-0.2,0-0.3V5.2c0,0,0,0,0-0.1c0,0,0,0,0-0.1c0,0,0-0.1,0.1-0.1c0,0,0,0,0-0.1c0,0,0,0,0-0.1l0,0
			c0,0,0,0,0-0.1c0,0,0,0,0-0.1c0,0,0,0,0-0.1c0,0,0,0,0-0.1c0,0,0,0,0.1-0.1l0.1-0.1c0,0,0,0,0.1,0L77.4,4c0.1-0.1,0.2-0.1,0.3-0.1
			c0,0,0,0,0.1,0c0,0,0,0,0.1,0l0,0H78c0,0,0,0,0.1,0l0,0c0,0,0,0,0.1,0l0,0l0,0l0,0l0,0l0,0c0,0,0,0,0.1,0c0,0,0,0,0.1,0h0.1h0.1
			c0.9,0,1.8,0.7,1.9,1.6l0,0c0.1,0.8-0.3,1.6-1,1.9l0,0l0,0l0,0l0,0l0,0l0,0c0,0,0,0-0.1,0l0,0l0,0l0,0l0,0l0,0c0,0,0,0,0,0.1l0,0
			l0,0c0,0,0,0,0,0.1l0,0l0,0l0,0c0,0,0,0,0,0.1l0,0c0,0,0,0,0,0.1l0,0l0,0l0,0c0,0,0,0,0,0.1V8c0,0.1,0,0.1,0,0.2
			c0.1,0.2,0.2,0.3,0.3,0.4l0,0l0,0c0,0,0,0,0.1,0h0.1l0,0l0,0l0,0H80l0,0l0,0c0,0,0,0,0.1,0l0,0l0,0h0.1l0,0l0,0l0,0l0,0l0,0l0,0
			l0,0l0,0C82,8.6,82.8,7.1,82.6,5.6z"/>
	</g>
	<g id="XMLID_557_">
		<path id="XMLID_519_" class="st1" d="M87,7.2c0-0.5,0.2-1,0.5-0.6c0.1,0.2,0.1,0.7,0.2,0.9c0.1,0.3,0.3,0.6,0.6,0.7
			c1.2,0.5,1.9-1.4,2.4-2c0.6-0.6,0.1-0.8,0.7-0.1c0.1,0.2,0.2,0.4,0.4,0.6c0.3,0.3,0.6,0.5,1,0.6c0.5,0.1,0.9-0.2,1.3-0.6
			c0.2-0.2,0.2-0.5,0.3-0.6c0.5-0.4-0.2-0.6,0.4,0.1c0.6,0.7,1,1.6,2.1,1.2c0.5-0.2,0.6-0.5,1-0.8c0.5-0.4,0.1-1.3,1.5-0.3
			c0.1,0.1,0.1,0.5,0.3,0.6c0.9,0.6,1.2,0.4,2.1-0.2c0.2-0.1,0.7-0.6,0.9-0.6c0.2,0,0.6,0.5,0.9,0.7c0.5,0.3,0.8,0.3,1.3,0.2
			c0.8-0.2,0.4-1.4-0.3-1.2c-0.5,0.1-1.4-0.9-1.9-1c-0.6-0.1-0.8,0.1-1.3,0.3c-0.4,0.2-0.2,0.5-0.7,0.4c-0.6,0-0.1-0.1-0.6-0.6
			c-0.4-0.3-0.6-0.6-1.1-0.7c-0.5,0-0.8,0.1-1.2,0.4C97,5.2,97,6.8,95.9,5.2c-0.5-0.7-0.8-1.7-1.9-0.8c-0.6,0.5-0.6,1.3-1.6,0.5
			c-0.3-0.2-0.2-0.7-0.7-0.9c-1.4-0.4-2,2.4-2.7,2.2c-0.2-0.1-0.2-1.1-0.5-1.4c-0.3-0.3-0.7-0.4-1.1-0.4C86.1,4.5,85.8,6,85.9,7
			C85.8,8,87,8,87,7.2L87,7.2z"/>
	</g>
	<rect id="XMLID_556_" x="69.3" y="37.5" class="st1" width="78.9" height="43.9"/>
	<g id="XMLID_471_">
		<g id="XMLID_553_">
			<path id="XMLID_555_" class="st2" d="M110.3,46.1V46v-0.1l0,0c0,0,0,0,0-0.1l0,0c0,0,0,0,0-0.1l0,0v-0.1v-0.1c0,0,0,0,0-0.1l0,0
				l0,0c0-0.1,0-0.1-0.1-0.1c0,0,0,0,0-0.1l0,0c0,0,0,0,0-0.1c0,0,0,0-0.1-0.1l0,0l0,0l0,0l0,0l-0.1-0.1l0,0l0,0l0,0l0,0l0,0l0,0
				l0,0l0,0l0,0l0,0l0,0l0,0c0,0,0,0-0.1,0l0,0l0,0l0,0l0,0l0,0l0,0l0,0l0,0l0,0l0,0l0,0l0,0l0,0l0,0l0,0l0,0l0,0l0,0l0,0l0,0l0,0
				c0,0,0,0,0,0.1v0.1l0,0c0,0,0,0,0,0.1l0,0l0,0l0,0l0,0c0,0,0,0,0,0.1s0,0.2,0,0.3v0.1c0,0,0,0,0,0.1c0,0,0,0,0,0.1
				c0,0,0,0.1-0.1,0.1c0,0,0,0,0,0.1c0,0,0,0,0,0.1l0,0c0,0,0,0,0,0.1c0,0,0,0,0,0.1c0,0,0,0-0.1,0.1c0,0,0,0-0.1,0.1
				c0,0,0,0-0.1,0.1l-0.1,0.1c0,0,0,0-0.1,0.1l-0.1,0.1c-0.1,0.1-0.2,0.1-0.3,0.2h-0.1h-0.1l0,0h-0.1h-0.1l0,0h-0.1l0,0l0,0
				c0,0,0,0-0.1,0l0,0l0,0c0,0,0,0-0.1,0c0,0,0,0-0.1,0H108h-0.1c-1.1,0-2-0.7-2.1-1.8l0,0c-0.1-0.9,0.4-1.8,1.2-2.1l0,0l0,0l0,0
				l0,0l0,0l0,0c0,0,0,0,0.1,0c0,0,0,0,0.1,0l0,0l0,0l0,0l0,0c0,0,0,0,0.1-0.1l0,0l0,0c0,0,0,0,0-0.1l0,0c0,0,0,0,0-0.1l0,0
				c0,0,0,0,0-0.1l0,0c0,0,0,0,0-0.1l0,0l0,0c0,0,0,0,0-0.1c0,0,0,0,0-0.1s0-0.1,0-0.2s0-0.1,0-0.2c-0.1-0.2-0.2-0.4-0.4-0.5l0,0
				l0,0h-0.1h-0.1l0,0l0,0l0,0h-0.1l0,0l0,0c0,0,0,0-0.1,0l0,0l0,0h-0.1l0,0l0,0l0,0l0,0l0,0l0,0l0,0l0,0c-1.5,0.7-2.4,2.4-2.2,4.1
				c0.3,2,2.1,3.5,4.1,3.4c0.1,0,0.2,0,0.3,0h0.1c0,0,0,0,0.1,0l0,0l0,0h0.1l0,0l0,0c0.1,0,0.1,0,0.2,0l0,0l0,0c0,0,0,0,0.1,0l0,0
				l0,0l0,0l0,0c0.1,0,0.1,0,0.2-0.1c0,0,0,0,0.1,0l0,0c0.1,0,0.2-0.1,0.3-0.1c0,0,0.1,0,0.1-0.1c0,0,0,0,0.1,0c0,0,0,0,0.1,0
				c0,0,0,0,0.1,0l0,0l0,0c0,0,0,0,0.1,0c0,0,0.1,0,0.1-0.1l0,0l0,0c0,0,0,0,0.1,0l0.1-0.1l0,0l0.1-0.1l0,0l0.1-0.1
				c0,0,0-0.1,0.1-0.1c0-0.1,0.1-0.1,0.1-0.2v-0.1V48v-0.1c0-0.1,0-0.1,0.1-0.2v-0.1v-0.1c0,0,0,0,0-0.1c0,0,0,0,0-0.1v-0.1v-0.1
				l0,0V47C110.3,46.2,110.3,46.2,110.3,46.1z"/>
			<path id="XMLID_554_" class="st2" d="M114.3,44.6c-0.3-2-2.1-3.5-4.1-3.4c-0.1,0-0.2,0-0.3,0h-0.1c0,0,0,0-0.1,0l0,0l0,0h-0.1
				l0,0l0,0c-0.1,0-0.1,0-0.2,0l0,0l0,0c0,0,0,0-0.1,0l0,0l0,0l0,0l0,0c-0.1,0-0.1,0-0.2,0.1c0,0,0,0-0.1,0l0,0
				c-0.1,0-0.2,0.1-0.3,0.1c0,0-0.1,0-0.1,0.1c0,0,0,0-0.1,0c0,0,0,0-0.1,0c0,0,0,0-0.1,0l0,0l0,0c0,0,0,0-0.1,0c0,0-0.1,0-0.1,0.1
				l0,0l0,0c0,0,0,0-0.1,0l-0.1,0.1l0,0l-0.1,0.1l0,0l-0.1,0.1c0,0,0,0.1-0.1,0.1c0,0.1-0.1,0.1-0.1,0.2v0.1v0.1v0.1
				c0,0.1,0,0.1-0.1,0.2v0.1v0.1c0,0,0,0,0,0.1c0,0,0,0,0,0.1v0.1v0.1l0,0v0.1v0.1v0.1v0.1l0,0c0,0,0,0,0,0.1l0,0c0,0,0,0,0,0.1l0,0
				V44v0.1c0,0,0,0,0,0.1l0,0l0,0c0,0.1,0,0.1,0.1,0.1c0,0,0,0,0,0.1l0,0c0,0,0,0,0,0.1c0,0,0,0,0.1,0.1l0,0l0,0l0,0l0,0l0.1,0.1
				l0,0l0,0l0,0l0,0l0,0l0,0l0,0l0,0l0,0l0,0l0,0l0,0c0,0,0,0,0.1,0l0,0l0,0l0,0l0,0l0,0l0,0l0,0l0,0l0,0l0,0l0,0l0,0l0,0l0,0l0,0
				l0,0l0,0l0,0l0,0l0,0l0,0c0,0,0,0,0-0.1v-0.1l0,0c0,0,0,0,0-0.1l0,0l0,0l0,0l0,0c0,0,0,0,0-0.1s0-0.2,0-0.3v-0.1c0,0,0,0,0-0.1
				c0,0,0,0,0-0.1c0,0,0-0.1,0.1-0.1c0,0,0,0,0-0.1c0,0,0,0,0-0.1l0,0c0,0,0,0,0-0.1c0,0,0,0,0-0.1c0,0,0,0,0.1-0.1c0,0,0,0,0.1-0.1
				c0,0,0,0,0.1-0.1l0.1-0.1c0,0,0,0,0.1-0.1l0.1-0.1c0.1-0.1,0.2-0.1,0.3-0.2h0.1h0.1l0,0h0.1h0.1l0,0h0.1l0,0l0,0c0,0,0,0,0.1,0
				l0,0l0,0c0,0,0,0,0.1,0c0,0,0,0,0.1,0h0.1h0.1c1.1,0,2,0.7,2.1,1.8l0,0c0.1,0.9-0.4,1.8-1.2,2.1l0,0l0,0l0,0l0,0l0,0l0,0
				c0,0,0,0-0.1,0c0,0,0,0-0.1,0l0,0l0,0l0,0l0,0c0,0,0,0-0.1,0.1l0,0l0,0c0,0,0,0,0,0.1l0,0c0,0,0,0,0,0.1l0,0c0,0,0,0,0,0.1l0,0
				c0,0,0,0,0,0.1l0,0l0,0c0,0,0,0,0,0.1c0,0,0,0,0,0.1s0,0.1,0,0.2s0,0.1,0,0.2c0.1,0.2,0.2,0.4,0.4,0.5l0,0l0,0h0.1h0.1l0,0l0,0
				l0,0h0.1l0,0l0,0c0,0,0,0,0.1,0l0,0l0,0h0.1l0,0l0,0l0,0l0,0l0,0l0,0l0,0l0,0C113.6,48,114.5,46.4,114.3,44.6z"/>
		</g>
		<g id="XMLID_546_">
			<path id="XMLID_517_" class="st0" d="M102.6,56.4c4.1,0,8.3,0,12.4,0c0.8,0,0.8-1.3,0-1.3c-4.1,0-8.3,0-12.4,0
				C101.8,55.1,101.8,56.4,102.6,56.4L102.6,56.4z"/>
		</g>
		<g id="XMLID_539_">
			<path id="XMLID_515_" class="st0" d="M99.3,59.1c6.3,0,12.6,0,18.9,0c0.8,0,0.8-1.3,0-1.3c-6.3,0-12.6,0-18.9,0
				C98.5,57.8,98.5,59.1,99.3,59.1L99.3,59.1z"/>
		</g>
		<g id="XMLID_532_">
			<path id="XMLID_508_" class="st0" d="M104.5,61.7c2.9,0,5.7,0,8.6,0c0.8,0,0.8-1.3,0-1.3c-2.9,0-5.7,0-8.6,0
				C103.7,60.5,103.7,61.7,104.5,61.7L104.5,61.7z"/>
		</g>
		<g id="XMLID_525_">
			<path id="XMLID_507_" class="st0" d="M102,64.4c4.5,0,9.1,0,13.6,0c0.8,0,0.8-1.3,0-1.3c-4.5,0-9.1,0-13.6,0
				C101.2,63.2,101.2,64.4,102,64.4L102,64.4z"/>
		</g>
		<g id="XMLID_518_">
			<path id="XMLID_506_" class="st0" d="M99.3,67.1c6.3,0,12.6,0,18.9,0c0.8,0,0.8-1.3,0-1.3c-6.3,0-12.6,0-18.9,0
				C98.5,65.9,98.5,67.1,99.3,67.1L99.3,67.1z"/>
		</g>
		<g id="XMLID_505_">
			<path id="XMLID_516_" class="st0" d="M96.2,69.8c8.4,0,16.8,0,25.1,0c0.8,0,0.8-1.3,0-1.3c-8.4,0-16.8,0-25.1,0
				C95.4,68.5,95.4,69.8,96.2,69.8L96.2,69.8z"/>
		</g>
		<path id="XMLID_504_" class="st0" d="M120.6,77.7h-8.5c-1,0-1.9-0.8-1.9-1.9l0,0c0-1,0.8-1.9,1.9-1.9h8.5c1,0,1.9,0.8,1.9,1.9l0,0
			C122.5,76.9,121.6,77.7,120.6,77.7z"/>
		<path id="XMLID_503_" class="st2" d="M105.4,77.7h-8.5c-1,0-1.9-0.8-1.9-1.9l0,0c0-1,0.8-1.9,1.9-1.9h8.5c1,0,1.9,0.8,1.9,1.9l0,0
			C107.3,76.9,106.5,77.7,105.4,77.7z"/>
	</g>
	<rect id="XMLID_470_" x="120" y="0" class="st0" width="28.2" height="28.2"/>
	<g id="XMLID_438_">
		<path id="XMLID_464_" class="st2" d="M135.5,15.3C135.5,15.3,135.5,15.2,135.5,15.3c0-0.1,0-0.1,0-0.2l0,0c0,0,0,0,0-0.1l0,0
			c0,0,0,0,0-0.1l0,0v-0.1v-0.1c0,0,0,0,0-0.1l0,0l0,0c0,0,0-0.1-0.1-0.1c0,0,0,0,0-0.1l0,0c0,0,0,0,0-0.1c0,0,0,0,0-0.1l0,0l0,0
			l0,0l0,0l-0.1-0.1l0,0l0,0l0,0l0,0l0,0l0,0l0,0l0,0l0,0l0,0l0,0l0,0l0,0l0,0l0,0l0,0l0,0l0,0l0,0l0,0l0,0l0,0l0,0l0,0l0,0l0,0l0,0
			l0,0l0,0l0,0l0,0l0,0l0,0l0,0c0,0,0,0,0,0.1c0,0,0,0,0,0.1l0,0c0,0,0,0,0,0.1l0,0l0,0l0,0l0,0c0,0,0,0,0,0.1s0,0.2,0,0.3v0.1
			c0,0,0,0,0,0.1c0,0,0,0,0,0.1c0,0,0,0.1-0.1,0.1c0,0,0,0,0,0.1c0,0,0,0,0,0.1l0,0c0,0,0,0,0,0.1c0,0,0,0,0,0.1c0,0,0,0,0,0.1
			c0,0,0,0,0,0.1c0,0,0,0-0.1,0.1L135,16c0,0,0,0-0.1,0l-0.1,0.1c-0.1,0.1-0.2,0.1-0.3,0.1c0,0,0,0-0.1,0c0,0,0,0-0.1,0l0,0h-0.1
			c0,0,0,0-0.1,0l0,0c0,0,0,0-0.1,0l0,0l0,0l0,0l0,0l0,0c0,0,0,0-0.1,0c0,0,0,0-0.1,0h-0.1h-0.1c-0.9,0-1.8-0.7-1.9-1.6l0,0
			c-0.1-0.8,0.3-1.6,1-1.9l0,0l0,0l0,0l0,0l0,0l0,0c0,0,0,0,0.1,0l0,0l0,0l0,0l0,0l0,0c0,0,0,0,0-0.1l0,0l0,0c0,0,0,0,0-0.1l0,0l0,0
			l0,0c0,0,0,0,0-0.1l0,0c0,0,0,0,0-0.1l0,0l0,0l0,0c0,0,0,0,0-0.1v-0.1c0-0.1,0-0.1,0-0.2c-0.1-0.2-0.2-0.3-0.3-0.4l0,0l0,0
			c0,0,0,0-0.1,0h-0.1l0,0l0,0l0,0h-0.1l0,0l0,0c0,0,0,0-0.1,0l0,0l0,0H132l0,0l0,0l0,0l0,0l0,0l0,0l0,0l0,0
			c-1.3,0.6-2.1,2.1-1.9,3.6c0.2,1.8,1.8,3.1,3.6,3c0.1,0,0.2,0,0.3,0h0.1l0,0l0,0l0,0h0.1l0,0l0,0h0.1l0,0l0,0c0,0,0,0,0.1,0l0,0
			l0,0l0,0l0,0c0.1,0,0.1,0,0.2-0.1c0,0,0,0,0.1,0l0,0c0.1,0,0.2-0.1,0.2-0.1h0.1c0,0,0,0,0.1,0c0,0,0,0,0.1,0c0,0,0,0,0.1,0l0,0
			l0,0c0,0,0,0,0.1,0c0,0,0,0,0.1-0.1l0,0l0,0l0,0l0.1-0.1l0,0l0.1-0.1l0,0l0.1-0.1c0,0,0,0,0-0.1s0.1-0.1,0.1-0.2c0,0,0,0,0-0.1V17
			c0,0,0,0,0-0.1s0-0.1,0.1-0.2v-0.1v-0.1c0,0,0,0,0-0.1c0,0,0,0,0-0.1c0,0,0,0,0-0.1v-0.1l0,0C135.5,15.5,135.5,15.4,135.5,15.3
			C135.5,15.4,135.5,15.3,135.5,15.3z"/>
		<path id="XMLID_463_" class="st2" d="M139,14c-0.2-1.8-1.8-3.1-3.6-3c-0.1,0-0.2,0-0.3,0H135l0,0l0,0l0,0h-0.1l0,0l0,0h-0.1l0,0
			l0,0c0,0,0,0-0.1,0l0,0l0,0l0,0l0,0c-0.1,0-0.1,0-0.2,0.1c0,0,0,0-0.1,0l0,0c-0.1,0-0.2,0.1-0.2,0.1h-0.1c0,0,0,0-0.1,0
			c0,0,0,0-0.1,0c0,0,0,0-0.1,0l0,0l0,0c0,0,0,0-0.1,0c0,0,0,0-0.1,0.1l0,0l0,0l0,0l-0.1,0.1l0,0l-0.1,0.1l0,0l-0.1,0.1
			c0,0,0,0,0,0.1s-0.1,0.1-0.1,0.2c0,0,0,0,0,0.1v0.1c0,0,0,0,0,0.1s0,0.1-0.1,0.2v0.1v0.1c0,0,0,0,0,0.1c0,0,0,0,0,0.1
			c0,0,0,0,0,0.1V13l0,0v0.1v0.1v0.1v0.1l0,0c0,0,0,0,0,0.1l0,0c0,0,0,0,0,0.1l0,0v0.1v0.1c0,0,0,0,0,0.1l0,0l0,0c0,0,0,0.1,0.1,0.1
			c0,0,0,0,0,0.1l0,0c0,0,0,0,0,0.1c0,0,0,0,0,0.1l0,0l0,0l0,0l0,0l0.1,0.1l0,0l0,0l0,0l0,0l0,0l0,0l0,0l0,0l0,0l0,0l0,0l0,0l0,0
			l0,0l0,0l0,0l0,0l0,0l0,0l0,0l0,0l0,0l0,0l0,0l0,0l0,0l0,0l0,0l0,0l0,0l0,0l0,0l0,0l0,0c0,0,0,0,0-0.1c0,0,0,0,0-0.1l0,0
			c0,0,0,0,0-0.1l0,0l0,0l0,0l0,0c0,0,0,0,0-0.1s0-0.2,0-0.3v-0.1c0,0,0,0,0-0.1c0,0,0,0,0-0.1c0,0,0-0.1,0.1-0.1c0,0,0,0,0-0.1
			c0,0,0,0,0-0.1l0,0c0,0,0,0,0-0.1c0,0,0,0,0-0.1c0,0,0,0,0-0.1c0,0,0,0,0-0.1c0,0,0,0,0.1-0.1l0.1-0.1c0,0,0,0,0.1,0l0.1-0.1
			c0.1-0.1,0.2-0.1,0.3-0.1c0,0,0,0,0.1,0c0,0,0,0,0.1,0l0,0h0.1c0,0,0,0,0.1,0l0,0c0,0,0,0,0.1,0l0,0l0,0l0,0l0,0l0,0
			c0,0,0,0,0.1,0c0,0,0,0,0.1,0h0.1h0.1c0.9,0,1.8,0.7,1.9,1.6l0,0c0.1,0.8-0.3,1.6-1,1.9l0,0l0,0l0,0l0,0l0,0l0,0c0,0,0,0-0.1,0
			l0,0l0,0l0,0l0,0l0,0c0,0,0,0,0,0.1l0,0l0,0c0,0,0,0,0,0.1l0,0l0,0l0,0c0,0,0,0,0,0.1l0,0c0,0,0,0,0,0.1l0,0l0,0l0,0
			c0,0,0,0,0,0.1v0.1c0,0.1,0,0.1,0,0.2c0.1,0.2,0.2,0.3,0.3,0.4l0,0l0,0c0,0,0,0,0.1,0h0.1l0,0l0,0l0,0h0.1l0,0l0,0c0,0,0,0,0.1,0
			l0,0l0,0h0.1l0,0l0,0l0,0l0,0l0,0l0,0l0,0l0,0C138.3,17,139.2,15.5,139,14z"/>
	</g>
</g>
</svg>
