<?xml version="1.0" encoding="utf-8"?>
<!-- Generator: Adobe Illustrator 19.0.0, SVG Export Plug-In . SVG Version: 6.00 Build 0)  -->
<svg version="1.1" id="Layer_1" xmlns="http://www.w3.org/2000/svg" xmlns:xlink="http://www.w3.org/1999/xlink" x="0px" y="0px"
	 viewBox="0 0 204.5 85" style="enable-background:new 0 0 204.5 85;" xml:space="preserve">
<style type="text/css">
	.st0{fill:#363639;}
	.st1{fill:#FFFFFF;}
</style>
<g id="XMLID_393_">
	<path id="XMLID_249_" class="st0" d="M82.2,25.2c0,1.7-1.4,3-3,3h-5.7c-1.7,0-3-1.4-3-3v-5.7c0-1.7,1.4-3,3-3h5.7c1.7,0,3,1.4,3,3
		V25.2z"/>
	<path id="XMLID_248_" class="st0" d="M75.8,39.5v-5.9c0-1.7,1.3-3,3-3h5.9c1.7,0,2.9,1.4,2.9,3v5.9c0,1.7-1.2,2.9-2.9,2.9h-5.9
		C77.1,42.4,75.8,41.2,75.8,39.5z"/>
	<path id="XMLID_247_" class="st0" d="M91,53.4c0,1.7-1.4,3-3,3h-5.7c-1.7,0-3-1.4-3-3v-5.7c0-1.7,1.4-3,3-3H88c1.7,0,3,1.4,3,3
		V53.4z"/>
	<path id="XMLID_246_" class="st0" d="M96.3,25.2c0,1.7-1.4,3-3,3h-5.7c-1.7,0-3-1.4-3-3v-5.7c0-1.7,1.4-3,3-3h5.7c1.7,0,3,1.4,3,3
		V25.2z"/>
	<path id="XMLID_245_" class="st0" d="M84.9,67.9v-5.9c0-1.7,1.5-3,3.2-3H94c1.7,0,3.1,1.3,3.1,3v5.9c0,1.7-1.4,3-3.1,3h-5.9
		C86.4,70.9,84.9,69.6,84.9,67.9z"/>
	<path id="XMLID_244_" class="st0" d="M101.7,39.3c0,1.7-1.4,3-3,3h-5.7c-1.7,0-3-1.4-3-3v-5.7c0-1.7,1.4-3,3-3h5.7c1.7,0,3,1.4,3,3
		V39.3z"/>
	<path id="XMLID_243_" class="st0" d="M70.8,67.9v-5.9c0-1.7,1.3-3,3-3h5.9c1.7,0,3,1.3,3,3v5.9c0,1.7-1.3,3-3,3h-5.9
		C72.1,70.9,70.8,69.6,70.8,67.9z"/>
	<path id="XMLID_242_" class="st0" d="M102.2,56.4h-5.9c-1.7,0-3.1-1.2-3.1-2.9v-5.9c0-1.7,1.4-3,3.1-3h5.9c1.7,0,2.9,1.3,2.9,3v5.9
		C105.1,55.2,103.9,56.4,102.2,56.4z"/>
	<path id="XMLID_241_" class="st0" d="M180.5,25.2c0,1.7-1.4,3-3,3h-5.7c-1.7,0-3-1.4-3-3v-5.7c0-1.7,1.4-3,3-3h5.7c1.7,0,3,1.4,3,3
		V25.2z"/>
	<path id="XMLID_237_" class="st0" d="M136.3,76.1V82c0,1.7-1.3,3-3,3H51.6c-1.7,0-3.2-1.3-3.2-3v-5.9c0-1.7,1.5-2.9,3.2-2.9h81.7
		C135,73.2,136.3,74.4,136.3,76.1z"/>
	<path id="XMLID_190_" class="st0" d="M187.3,39.3c0,1.7-1.4,3-3,3h-5.7c-1.7,0-3-1.4-3-3v-5.7c0-1.7,1.4-3,3-3h5.7c1.7,0,3,1.4,3,3
		V39.3z"/>
	<path id="XMLID_189_" class="st0" d="M99.4,67.9v-5.9c0-1.7,1.3-3,3-3h5.9c1.7,0,2.9,1.3,2.9,3v5.9c0,1.7-1.2,3-2.9,3h-5.9
		C100.7,70.9,99.4,69.6,99.4,67.9z"/>
	<path id="XMLID_188_" class="st0" d="M130.2,39.3c0,1.7-1.4,3-3,3h-5.7c-1.7,0-3-1.4-3-3v-5.7c0-1.7,1.4-3,3-3h5.7c1.7,0,3,1.4,3,3
		V39.3z"/>
	<path id="XMLID_187_" class="st0" d="M204.5,62.1v5.9c0,1.7-1.4,3-3,3h-27.5c-1.7,0-2.9-1.3-2.9-3v-5.9c0-1.7,1.2-3,2.9-3h27.5
		C203.1,59.1,204.5,60.4,204.5,62.1z"/>
	<path id="XMLID_186_" class="st0" d="M154.2,62.1v5.9c0,1.7-1.4,3-3.1,3h-5.9c-1.7,0-2.9-1.3-2.9-3v-5.9c0-1.7,1.2-3,2.9-3h5.9
		C152.8,59.1,154.2,60.4,154.2,62.1z"/>
	<path id="XMLID_185_" class="st0" d="M104.3,39.5v-5.9c0-1.7,1.2-3,2.9-3h5.9c1.7,0,3,1.4,3,3v5.9c0,1.7-1.3,2.9-3,2.9h-5.9
		C105.6,42.4,104.3,41.2,104.3,39.5z"/>
	<path id="XMLID_184_" class="st0" d="M126.4,25.4v-5.9c0-1.7,1.5-3,3.2-3h5.9c1.7,0,3.1,1.4,3.1,3v5.9c0,1.7-1.4,2.9-3.1,2.9h-5.9
		C127.9,28.3,126.4,27.1,126.4,25.4z"/>
	<path id="XMLID_183_" class="st0" d="M139.7,62.1v5.9c0,1.7-1.2,3-2.9,3H131c-1.7,0-3-1.3-3-3v-5.9c0-1.7,1.4-3,3-3h5.9
		C138.5,59.1,139.7,60.4,139.7,62.1z"/>
	<path id="XMLID_182_" class="st0" d="M162.2,53.4c0,1.7-1.4,3-3,3h-5.7c-1.7,0-3-1.4-3-3v-5.7c0-1.7,1.4-3,3-3h5.7c1.7,0,3,1.4,3,3
		V53.4z"/>
	<path id="XMLID_181_" class="st0" d="M135.9,53.5v-5.9c0-1.7,1.5-3,3.1-3h5.9c1.7,0,3.2,1.3,3.2,3v5.9c0,1.7-1.5,2.9-3.2,2.9h-5.9
		C137.4,56.4,135.9,55.2,135.9,53.5z"/>
	<path id="XMLID_180_" class="st0" d="M166.4,25.2c0,1.7-1.4,3-3,3h-5.7c-1.7,0-3-1.4-3-3v-5.7c0-1.7,1.4-3,3-3h5.7c1.7,0,3,1.4,3,3
		V25.2z"/>
	<path id="XMLID_179_" class="st0" d="M168.7,62.1v5.9c0,1.7-1.5,3-3.2,3h-5.9c-1.7,0-3.1-1.3-3.1-3v-5.9c0-1.7,1.4-3,3.1-3h5.9
		C167.1,59.1,168.7,60.4,168.7,62.1z"/>
	<path id="XMLID_178_" class="st0" d="M110,25.2c0,1.7-1.4,3-3,3h-5.7c-1.7,0-3-1.4-3-3v-5.7c0-1.7,1.4-3,3-3h5.7c1.7,0,3,1.4,3,3
		V25.2z"/>
	<path id="XMLID_177_" class="st0" d="M119.2,53.4c0,1.7-1.4,3-3,3h-5.7c-1.7,0-3-1.4-3-3v-5.7c0-1.7,1.4-3,3-3h5.7c1.7,0,3,1.4,3,3
		V53.4z"/>
	<path id="XMLID_176_" class="st0" d="M135.7,42.4c-1.7,0-3.2-1.2-3.2-2.9v-5.9c0-1.7,1.5-3,3.2-3h5.9c1.7,0,3.1,1.4,3.1,3v5.9
		c0,1.7-1.4,2.9-3.1,2.9H135.7z"/>
	<path id="XMLID_175_" class="st0" d="M140.5,25.4v-5.9c0-1.7,1.5-3,3.2-3h5.9c1.7,0,3.1,1.4,3.1,3v5.9c0,1.7-1.4,2.9-3.1,2.9h-5.9
		C142,28.3,140.5,27.1,140.5,25.4z"/>
	<path id="XMLID_174_" class="st0" d="M164.5,53.5v-5.9c0-1.7,1.4-3,3.1-3h5.9c1.7,0,2.9,1.3,2.9,3v5.9c0,1.7-1.2,2.9-2.9,2.9h-5.9
		C165.9,56.4,164.5,55.2,164.5,53.5z"/>
	<path id="XMLID_173_" class="st0" d="M182.8,25.4v-5.9c0-1.7,1.5-3,3.2-3h15.4c1.7,0,3.1,1.4,3.1,3v5.9c0,1.7-1.5,2.9-3.1,2.9
		h-15.4C184.3,28.3,182.8,27.1,182.8,25.4z"/>
	<path id="XMLID_172_" class="st0" d="M204.5,47.7v5.9c0,1.7-1.4,2.9-3,2.9h-19.6c-1.7,0-3.2-1.2-3.2-2.9v-5.9c0-1.7,1.5-3,3.2-3
		h19.6C203.1,44.6,204.5,46,204.5,47.7z"/>
	<path id="XMLID_171_" class="st0" d="M158.8,39.3c0,1.7-1.4,3-3,3H150c-1.7,0-3-1.4-3-3v-5.7c0-1.7,1.4-3,3-3h5.7c1.7,0,3,1.4,3,3
		V39.3z"/>
	<path id="XMLID_170_" class="st0" d="M113.5,67.9v-5.9c0-1.7,1.5-3,3.2-3h5.9c1.7,0,3.1,1.3,3.1,3v5.9c0,1.7-1.4,3-3.1,3h-5.9
		C115,70.9,113.5,69.6,113.5,67.9z"/>
	<path id="XMLID_169_" class="st0" d="M130.7,56.4h-5.9c-1.7,0-3-1.2-3-2.9v-5.9c0-1.7,1.3-3,3-3h5.9c1.7,0,3,1.3,3,3v5.9
		C133.6,55.2,132.4,56.4,130.7,56.4z"/>
	<path id="XMLID_168_" class="st0" d="M164.2,42.4c-1.7,0-3.1-1.2-3.1-2.9v-5.9c0-1.7,1.4-3,3.1-3h5.9c1.7,0,3.2,1.4,3.2,3v5.9
		c0,1.7-1.5,2.9-3.2,2.9H164.2z"/>
	<path id="XMLID_167_" class="st0" d="M112.3,25.4v-5.9c0-1.7,1.5-3,3.2-3h5.9c1.7,0,3.1,1.4,3.1,3v5.9c0,1.7-1.4,2.9-3.1,2.9h-5.9
		C113.9,28.3,112.3,27.1,112.3,25.4z"/>
	<path id="XMLID_166_" class="st0" d="M204.5,33.6v5.9c0,1.7-1.4,2.9-3,2.9h-8.8c-1.7,0-3-1.2-3-2.9v-5.9c0-1.7,1.3-3,3-3h8.8
		C203.1,30.6,204.5,31.9,204.5,33.6z"/>
	<path id="XMLID_165_" class="st0" d="M36.1,30.6H42c1.7,0,3,1.4,3,3v5.9c0,1.7-1.3,2.9-3,2.9h-5.9c-1.7,0-3-1.2-3-2.9v-5.9
		C33.1,31.9,34.4,30.6,36.1,30.6z"/>
	<path id="XMLID_164_" class="st0" d="M42.3,25.4v-5.9c0-1.7,1.2-3,2.9-3H51c1.7,0,3,1.4,3,3v5.9c0,1.7-1.3,2.9-3,2.9h-5.9
		C43.5,28.3,42.3,27.1,42.3,25.4z"/>
	<path id="XMLID_163_" class="st0" d="M51.1,70.9h-5.9c-1.7,0-2.9-1.3-2.9-3v-5.9c0-1.7,1.2-3,2.9-3h5.9c1.7,0,3,1.3,3,3v5.9
		C54.1,69.6,52.8,70.9,51.1,70.9z"/>
	<path id="XMLID_162_" class="st0" d="M50.3,42.4c-1.7,0-3.1-1.2-3.1-2.9v-5.9c0-1.7,1.4-3,3.1-3h5.9c1.7,0,3.2,1.4,3.2,3v5.9
		c0,1.7-1.5,2.9-3.2,2.9H50.3z"/>
	<path id="XMLID_161_" class="st0" d="M50.6,53.5v-5.9c0-1.7,1.3-3,3-3h5.9c1.7,0,3,1.3,3,3v5.9c0,1.7-1.3,2.9-3,2.9h-5.9
		C51.9,56.4,50.6,55.2,50.6,53.5z"/>
	<path id="XMLID_160_" class="st0" d="M56.4,67.9v-5.9c0-1.7,1.5-3,3.1-3h5.9c1.7,0,3.2,1.3,3.2,3v5.9c0,1.7-1.5,3-3.2,3h-5.9
		C57.8,70.9,56.4,69.6,56.4,67.9z"/>
	<path id="XMLID_159_" class="st0" d="M56.4,25.4v-5.9c0-1.7,1.2-3,2.9-3h5.9c1.7,0,3,1.4,3,3v5.9c0,1.7-1.4,2.9-3,2.9h-5.9
		C57.6,28.3,56.4,27.1,56.4,25.4z"/>
	<path id="XMLID_158_" class="st0" d="M61.7,39.5v-5.9c0-1.7,1.2-3,2.9-3h5.9c1.7,0,3,1.4,3,3v5.9c0,1.7-1.4,2.9-3,2.9h-5.9
		C62.9,42.4,61.7,41.2,61.7,39.5z"/>
	<path id="XMLID_157_" class="st0" d="M76.5,53.4c0,1.7-1.4,3-3,3h-5.7c-1.7,0-3-1.4-3-3v-5.7c0-1.7,1.4-3,3-3h5.7c1.7,0,3,1.4,3,3
		V53.4z"/>
	<path id="XMLID_156_" class="st0" d="M28.2,25.4v-5.9c0-1.7,1.2-3,2.9-3H37c1.7,0,3,1.4,3,3v5.9c0,1.7-1.3,2.9-3,2.9h-5.9
		C29.4,28.3,28.2,27.1,28.2,25.4z"/>
	<path id="XMLID_155_" class="st0" d="M0,39.5v-5.9c0-1.7,1.3-3,2.9-3h10.6c1.7,0,3.2,1.4,3.2,3v5.9c0,1.7-1.5,2.9-3.2,2.9H2.9
		C1.3,42.4,0,41.2,0,39.5z"/>
	<path id="XMLID_154_" class="st0" d="M11.8,25.2c0,1.7-1.4,3-3,3H3c-1.7,0-3-1.4-3-3v-5.7c0-1.7,1.4-3,3-3h5.7c1.7,0,3,1.4,3,3
		V25.2z"/>
	<g id="XMLID_543_">
		<path id="XMLID_531_" class="st0" d="M82.2,8.8c0,1.7-1.4,3-3,3h-5.7c-1.7,0-3-1.4-3-3V3c0-1.7,1.4-3,3-3h5.7c1.7,0,3,1.4,3,3V8.8
			z"/>
		<path id="XMLID_530_" class="st0" d="M42.3,8.9V3c0-1.7,1.2-3,2.9-3H51c1.7,0,3,1.4,3,3v5.9c0,1.7-1.3,2.9-3,2.9h-5.9
			C43.5,11.8,42.3,10.6,42.3,8.9z"/>
		<path id="XMLID_529_" class="st0" d="M56.4,8.9V3c0-1.7,1.2-3,2.9-3h5.9c1.7,0,3,1.4,3,3v5.9c0,1.7-1.4,2.9-3,2.9h-5.9
			C57.6,11.8,56.4,10.6,56.4,8.9z"/>
		<path id="XMLID_528_" class="st0" d="M28.2,8.9V3c0-1.7,1.2-3,2.9-3H37c1.7,0,3,1.4,3,3v5.9c0,1.7-1.3,2.9-3,2.9h-5.9
			C29.4,11.8,28.2,10.6,28.2,8.9z"/>
	</g>
	<g id="XMLID_542_">
		<path id="XMLID_536_" class="st0" d="M142.8,8.8c0,1.7-1.4,3-3,3H134c-1.7,0-3-1.4-3-3V3c0-1.7,1.4-3,3-3h5.7c1.7,0,3,1.4,3,3V8.8
			z"/>
		<path id="XMLID_535_" class="st0" d="M102.8,8.9V3c0-1.7,1.2-3,2.9-3h5.9c1.7,0,3,1.4,3,3v5.9c0,1.7-1.3,2.9-3,2.9h-5.9
			C104,11.8,102.8,10.6,102.8,8.9z"/>
		<path id="XMLID_534_" class="st0" d="M116.9,8.9V3c0-1.7,1.2-3,2.9-3h5.9c1.7,0,3,1.4,3,3v5.9c0,1.7-1.4,2.9-3,2.9h-5.9
			C118.1,11.8,116.9,10.6,116.9,8.9z"/>
		<path id="XMLID_533_" class="st0" d="M88.7,8.9V3c0-1.7,1.2-3,2.9-3h5.9c1.7,0,3,1.4,3,3v5.9c0,1.7-1.3,2.9-3,2.9h-5.9
			C89.9,11.8,88.7,10.6,88.7,8.9z"/>
	</g>
	<g id="XMLID_526_">
		<path id="XMLID_541_" class="st0" d="M203.3,8.8c0,1.7-1.4,3-3,3h-5.7c-1.7,0-3-1.4-3-3V3c0-1.7,1.4-3,3-3h5.7c1.7,0,3,1.4,3,3
			V8.8z"/>
		<path id="XMLID_540_" class="st0" d="M163.3,8.9V3c0-1.7,1.2-3,2.9-3h5.9c1.7,0,3,1.4,3,3v5.9c0,1.7-1.3,2.9-3,2.9h-5.9
			C164.6,11.8,163.3,10.6,163.3,8.9z"/>
		<path id="XMLID_538_" class="st0" d="M177.4,8.9V3c0-1.7,1.2-3,2.9-3h5.9c1.7,0,3,1.4,3,3v5.9c0,1.7-1.4,2.9-3,2.9h-5.9
			C178.6,11.8,177.4,10.6,177.4,8.9z"/>
		<path id="XMLID_537_" class="st0" d="M149.3,8.9V3c0-1.7,1.2-3,2.9-3h5.9c1.7,0,3,1.4,3,3v5.9c0,1.7-1.3,2.9-3,2.9h-5.9
			C150.5,11.8,149.3,10.6,149.3,8.9z"/>
	</g>
	<path id="XMLID_527_" class="st0" d="M11.8,8.8c0,1.7-1.4,3-3,3H3c-1.7,0-3-1.4-3-3V3c0-1.7,1.4-3,3-3h5.7c1.7,0,3,1.4,3,3V8.8z"/>
	<path id="XMLID_153_" class="st0" d="M30.5,39.3c0,1.7-1.4,3-3,3h-5.7c-1.7,0-3-1.4-3-3v-5.7c0-1.7,1.4-3,3-3h5.7c1.7,0,3,1.4,3,3
		V39.3z"/>
	<path id="XMLID_152_" class="st0" d="M33.9,47.7v5.9c0,1.7-1.2,2.9-2.9,2.9h-5.9c-1.7,0-3-1.2-3-2.9v-5.9c0-1.7,1.4-3,3-3H31
		C32.7,44.6,33.9,46,33.9,47.7z"/>
	<path id="XMLID_151_" class="st0" d="M0,53.5v-5.9c0-1.7,1.3-3,2.9-3h13.8c1.7,0,3,1.3,3,3v5.9c0,1.7-1.4,2.9-3,2.9H2.9
		C1.3,56.4,0,55.2,0,53.5z"/>
	<path id="XMLID_150_" class="st0" d="M48,53.4c0,1.7-1.4,3-3,3h-5.7c-1.7,0-3-1.4-3-3v-5.7c0-1.7,1.4-3,3-3h5.7c1.7,0,3,1.4,3,3
		V53.4z"/>
	<path id="XMLID_149_" class="st0" d="M40,62.1v5.9c0,1.7-1.5,3-3.2,3h-5.9c-1.7,0-3.1-1.3-3.1-3v-5.9c0-1.7,1.4-3,3.1-3h5.9
		C38.5,59.1,40,60.4,40,62.1z"/>
	<path id="XMLID_148_" class="st0" d="M25.5,62.1v5.9c0,1.7-1.4,3-3,3H2.9c-1.7,0-2.9-1.3-2.9-3v-5.9c0-1.7,1.3-3,2.9-3h19.5
		C24.2,59.1,25.5,60.4,25.5,62.1z"/>
	<path id="XMLID_147_" class="st0" d="M25.9,25.2c0,1.7-1.4,3-3,3h-5.7c-1.7,0-3-1.4-3-3v-5.7c0-1.7,1.4-3,3-3h5.7c1.7,0,3,1.4,3,3
		V25.2z"/>
	<g id="XMLID_146_">
		<path id="XMLID_376_" class="st1" d="M26.8,36.7c0,0.4-0.1,0.7-0.2,1.1c-0.1,0.3-0.3,0.6-0.6,0.9l1,0.9l-0.8,0.7l-1.2-1.1
			c-0.1,0-0.2,0-0.3,0.1c-0.1,0-0.2,0-0.3,0c-0.4,0-0.7-0.1-1-0.2c-0.3-0.1-0.5-0.3-0.7-0.6s-0.3-0.5-0.4-0.8
			c-0.1-0.3-0.2-0.6-0.2-1v-1.1c0-0.4,0.1-0.8,0.2-1.1c0.1-0.3,0.2-0.6,0.4-0.9c0.2-0.2,0.4-0.4,0.7-0.6c0.3-0.1,0.6-0.2,1-0.2
			c0.4,0,0.7,0.1,1,0.2c0.3,0.1,0.5,0.3,0.7,0.6c0.2,0.2,0.4,0.5,0.5,0.9c0.1,0.3,0.2,0.7,0.2,1.1V36.7z M25.5,35.6
			c0-0.3,0-0.5-0.1-0.7c0-0.2-0.1-0.4-0.2-0.6c-0.1-0.2-0.2-0.3-0.3-0.4c-0.1-0.1-0.3-0.1-0.5-0.1c-0.2,0-0.4,0-0.5,0.1
			c-0.1,0.1-0.2,0.2-0.3,0.4c-0.1,0.2-0.1,0.3-0.2,0.6c0,0.2-0.1,0.5-0.1,0.7v1.1c0,0.2,0,0.4,0.1,0.6c0,0.2,0.1,0.4,0.2,0.5
			c0.1,0.1,0.2,0.3,0.3,0.4c0.1,0.1,0.3,0.1,0.5,0.1c0.2,0,0.4,0,0.5-0.1c0.1-0.1,0.3-0.2,0.3-0.4c0.1-0.1,0.2-0.3,0.2-0.5
			c0-0.2,0.1-0.4,0.1-0.6V35.6z"/>
		<path id="XMLID_374_" class="st1" d="M39.9,37.2l0.5-3.8h1.1l-0.9,6.3h-1.1L38.9,36l-0.6,3.7h-1.1l-0.9-6.3h1.1l0.4,3.7l0.5-3.7
			h0.9L39.9,37.2z"/>
		<path id="XMLID_372_" class="st1" d="M54.8,37h-2.6v1.8h3v1h-4.2v-6.3h4.2v1h-3V36h2.6V37z"/>
		<path id="XMLID_369_" class="st1" d="M67.3,37.4h-0.9v2.3h-1.2v-6.3h2.1c0.3,0,0.7,0,0.9,0.1c0.3,0.1,0.5,0.2,0.7,0.4
			c0.2,0.2,0.4,0.4,0.5,0.6c0.1,0.2,0.2,0.5,0.2,0.8c0,0.2,0,0.4-0.1,0.6s-0.1,0.3-0.2,0.5c-0.1,0.1-0.2,0.3-0.4,0.4
			s-0.3,0.2-0.5,0.3l1.3,2.6v0.1h-1.3L67.3,37.4z M66.4,36.4h0.9c0.3,0,0.6-0.1,0.8-0.3c0.2-0.2,0.3-0.4,0.3-0.7
			c0-0.3-0.1-0.6-0.3-0.7c-0.2-0.2-0.4-0.3-0.8-0.3h-0.9V36.4z"/>
		<path id="XMLID_367_" class="st1" d="M84.3,34.5h-1.9v5.3h-1.2v-5.3h-1.9v-1h5V34.5z"/>
		<path id="XMLID_365_" class="st1" d="M96,36.3l1.2-2.9h1.3l-2,4.1l0,2.2h-1.2l0-2.2l-1.9-4h1.3L96,36.3z"/>
		<path id="XMLID_363_" class="st1" d="M112.4,33.4l0,4.1c0,0.3,0,0.7-0.1,0.9s-0.2,0.5-0.4,0.7c-0.2,0.2-0.4,0.3-0.7,0.4
			c-0.3,0.1-0.6,0.1-0.9,0.1c-0.3,0-0.6,0-0.9-0.1c-0.3-0.1-0.5-0.2-0.7-0.4c-0.2-0.2-0.3-0.4-0.4-0.7c-0.1-0.3-0.1-0.6-0.1-0.9
			l0-4.1h1.2l0,4.1c0,0.4,0.1,0.7,0.2,0.9c0.1,0.2,0.4,0.3,0.6,0.3c0.3,0,0.5-0.1,0.7-0.3c0.2-0.2,0.2-0.5,0.2-0.9l0-4.1H112.4z"/>
		<path id="XMLID_307_" class="st1" d="M122.8,33.5h3.6v1h-1.2v4.3h1.2v1h-3.6v-1h1.2v-4.3h-1.2V33.5z"/>
		<path id="XMLID_304_" class="st1" d="M141.2,37.1c0,0.4-0.1,0.8-0.2,1.1s-0.3,0.6-0.5,0.9c-0.2,0.2-0.4,0.4-0.7,0.6
			c-0.3,0.1-0.6,0.2-1,0.2c-0.4,0-0.7-0.1-1-0.2c-0.3-0.1-0.5-0.3-0.7-0.6c-0.2-0.2-0.3-0.5-0.4-0.9s-0.2-0.7-0.2-1.1v-0.9
			c0-0.4,0-0.8,0.2-1.1c0.1-0.3,0.2-0.6,0.4-0.9c0.2-0.2,0.4-0.4,0.7-0.6c0.3-0.1,0.6-0.2,1-0.2c0.4,0,0.7,0.1,1,0.2
			c0.3,0.1,0.5,0.3,0.7,0.6c0.2,0.2,0.4,0.5,0.5,0.9c0.1,0.3,0.2,0.7,0.2,1.1V37.1z M140,36.1c0-0.3,0-0.5-0.1-0.7
			c0-0.2-0.1-0.4-0.2-0.6c-0.1-0.2-0.2-0.3-0.3-0.4c-0.1-0.1-0.3-0.1-0.5-0.1c-0.2,0-0.4,0-0.5,0.1c-0.1,0.1-0.2,0.2-0.3,0.4
			c-0.1,0.2-0.1,0.3-0.2,0.6c0,0.2-0.1,0.4-0.1,0.7v0.9c0,0.3,0,0.5,0.1,0.7c0,0.2,0.1,0.4,0.2,0.6c0.1,0.2,0.2,0.3,0.3,0.4
			c0.1,0.1,0.3,0.1,0.5,0.1c0.2,0,0.4,0,0.5-0.1c0.1-0.1,0.3-0.2,0.3-0.4c0.1-0.2,0.2-0.3,0.2-0.6c0-0.2,0.1-0.4,0.1-0.7V36.1z"/>
		<path id="XMLID_301_" class="st1" d="M152.2,37.4v2.3H151v-6.3h2.1c0.3,0,0.6,0,0.9,0.1c0.3,0.1,0.5,0.2,0.7,0.4s0.3,0.4,0.4,0.6
			c0.1,0.2,0.2,0.5,0.2,0.8c0,0.3-0.1,0.5-0.2,0.8c-0.1,0.2-0.3,0.4-0.4,0.6c-0.2,0.2-0.4,0.3-0.7,0.4s-0.6,0.1-0.9,0.1H152.2z
			 M152.2,36.4h0.9c0.2,0,0.3,0,0.4-0.1c0.1-0.1,0.2-0.1,0.3-0.2c0.1-0.1,0.1-0.2,0.2-0.3s0.1-0.2,0.1-0.4c0-0.1,0-0.3-0.1-0.4
			s-0.1-0.2-0.2-0.3c-0.1-0.1-0.2-0.2-0.3-0.2c-0.1-0.1-0.3-0.1-0.4-0.1h-0.9V36.4z"/>
		<path id="XMLID_299_" class="st1" d="M168.5,33.2h-0.7V40h0.7v0.9h-1.9v-8.7h1.9V33.2z"/>
		<path id="XMLID_297_" class="st1" d="M180.8,32.2h1.9v8.7h-1.9V40h0.7v-6.8h-0.7V32.2z"/>
		<path id="XMLID_294_" class="st1" d="M28.8,52.3h-1.9l-0.4,1.3h-1.3l2-6.3h1.1l2,6.3h-1.3L28.8,52.3z M27.2,51.2h1.3l-0.6-2.3
			L27.2,51.2z"/>
		<path id="XMLID_292_" class="st1" d="M43.3,51.9c0-0.1,0-0.2-0.1-0.3c0-0.1-0.1-0.2-0.2-0.3c-0.1-0.1-0.2-0.2-0.4-0.2
			c-0.2-0.1-0.3-0.1-0.6-0.2c-0.3-0.1-0.5-0.2-0.8-0.3c-0.2-0.1-0.5-0.2-0.7-0.4c-0.2-0.2-0.3-0.3-0.5-0.5C40.1,49.5,40,49.3,40,49
			c0-0.3,0.1-0.5,0.2-0.7c0.1-0.2,0.3-0.4,0.5-0.5c0.2-0.2,0.4-0.3,0.7-0.3c0.3-0.1,0.6-0.1,0.9-0.1c0.3,0,0.6,0,0.9,0.1
			c0.3,0.1,0.5,0.2,0.7,0.4c0.2,0.2,0.3,0.4,0.5,0.6c0.1,0.2,0.2,0.5,0.2,0.8h-1.2c0-0.1,0-0.3-0.1-0.4c0-0.1-0.1-0.2-0.2-0.3
			c-0.1-0.1-0.2-0.2-0.3-0.2c-0.1,0-0.3-0.1-0.5-0.1c-0.2,0-0.3,0-0.4,0.1c-0.1,0-0.2,0.1-0.3,0.2c-0.1,0.1-0.2,0.2-0.2,0.2
			c0,0.1-0.1,0.2-0.1,0.3c0,0.1,0,0.2,0.1,0.3c0.1,0.1,0.1,0.2,0.3,0.3c0.1,0.1,0.2,0.1,0.4,0.2c0.2,0.1,0.3,0.1,0.5,0.2
			c0.3,0.1,0.5,0.2,0.8,0.3c0.2,0.1,0.4,0.3,0.6,0.4c0.2,0.2,0.3,0.4,0.4,0.6c0.1,0.2,0.1,0.4,0.1,0.7c0,0.3-0.1,0.5-0.2,0.7
			c-0.1,0.2-0.3,0.4-0.5,0.5c-0.2,0.1-0.4,0.3-0.7,0.3c-0.3,0.1-0.6,0.1-0.9,0.1c-0.2,0-0.4,0-0.6-0.1c-0.2,0-0.4-0.1-0.6-0.2
			c-0.2-0.1-0.3-0.2-0.5-0.3c-0.2-0.1-0.3-0.2-0.4-0.4c-0.1-0.1-0.2-0.3-0.3-0.5c-0.1-0.2-0.1-0.4-0.1-0.6H41c0,0.2,0,0.4,0.1,0.5
			c0.1,0.1,0.1,0.2,0.3,0.3c0.1,0.1,0.2,0.1,0.4,0.2c0.2,0,0.3,0.1,0.5,0.1c0.2,0,0.3,0,0.4-0.1c0.1,0,0.2-0.1,0.3-0.2
			c0.1-0.1,0.2-0.1,0.2-0.2C43.2,52.2,43.3,52.1,43.3,51.9z"/>
		<path id="XMLID_289_" class="st1" d="M54.3,53.6v-6.3h1.6c0.4,0,0.8,0.1,1.1,0.2c0.3,0.1,0.6,0.3,0.9,0.6c0.2,0.3,0.4,0.6,0.6,0.9
			c0.1,0.4,0.2,0.7,0.2,1.2v0.5c0,0.4-0.1,0.8-0.2,1.2c-0.1,0.4-0.3,0.7-0.5,0.9c-0.2,0.3-0.5,0.5-0.8,0.6c-0.3,0.1-0.7,0.2-1.1,0.2
			H54.3z M55.5,48.3v4.3H56c0.2,0,0.4,0,0.6-0.1c0.2-0.1,0.3-0.2,0.5-0.4c0.1-0.2,0.2-0.4,0.3-0.6c0.1-0.2,0.1-0.5,0.1-0.8v-0.5
			c0-0.3,0-0.5-0.1-0.8c-0.1-0.2-0.2-0.4-0.3-0.6c-0.1-0.2-0.3-0.3-0.5-0.4c-0.2-0.1-0.4-0.1-0.7-0.1H55.5z"/>
		<path id="XMLID_287_" class="st1" d="M72.6,51h-2.7v2.6h-1.2v-6.3h4.2v1h-3V50h2.7V51z"/>
		<path id="XMLID_285_" class="st1" d="M87.4,52.8c-0.1,0.1-0.2,0.2-0.3,0.3c-0.1,0.1-0.3,0.2-0.5,0.3c-0.2,0.1-0.4,0.1-0.6,0.2
			c-0.2,0-0.5,0.1-0.7,0.1c-0.4,0-0.7-0.1-1-0.2c-0.3-0.1-0.5-0.3-0.7-0.5c-0.2-0.2-0.4-0.5-0.5-0.9c-0.1-0.3-0.2-0.7-0.2-1.2V50
			c0-0.4,0.1-0.8,0.2-1.2c0.1-0.3,0.3-0.6,0.5-0.9c0.2-0.2,0.4-0.4,0.7-0.5c0.3-0.1,0.6-0.2,0.9-0.2c0.4,0,0.7,0,0.9,0.1
			c0.3,0.1,0.5,0.2,0.7,0.4c0.2,0.2,0.3,0.4,0.4,0.6c0.1,0.2,0.2,0.5,0.2,0.8h-1.2c0-0.3-0.1-0.6-0.3-0.7c-0.2-0.2-0.4-0.2-0.7-0.2
			c-0.2,0-0.3,0-0.4,0.1c-0.1,0.1-0.2,0.2-0.3,0.3c-0.1,0.2-0.2,0.3-0.2,0.6c-0.1,0.2-0.1,0.5-0.1,0.8v0.9c0,0.6,0.1,1,0.3,1.3
			c0.2,0.3,0.5,0.5,0.9,0.5c0.1,0,0.2,0,0.3,0s0.2,0,0.3-0.1c0.1,0,0.2-0.1,0.2-0.1c0.1,0,0.1-0.1,0.1-0.1l0-1.1h-1v-0.9h2.2
			L87.4,52.8z"/>
		<path id="XMLID_283_" class="st1" d="M101.5,53.6h-1.2v-2.7h-1.8v2.7h-1.2v-6.3h1.2v2.6h1.8v-2.6h1.2V53.6z"/>
		<path id="XMLID_281_" class="st1" d="M114.7,47.3h1.2l0,4.3c0,0.3-0.1,0.6-0.2,0.8c-0.1,0.2-0.3,0.5-0.5,0.6
			c-0.2,0.2-0.4,0.3-0.7,0.4c-0.3,0.1-0.5,0.1-0.8,0.1c-0.3,0-0.6,0-0.9-0.1c-0.3-0.1-0.5-0.2-0.7-0.4c-0.2-0.2-0.3-0.4-0.4-0.6
			c-0.1-0.2-0.2-0.5-0.2-0.8h1.2c0,0.3,0.1,0.6,0.2,0.7c0.1,0.2,0.4,0.2,0.7,0.2c0.1,0,0.3,0,0.4-0.1c0.1-0.1,0.2-0.1,0.3-0.2
			c0.1-0.1,0.1-0.2,0.2-0.3c0-0.1,0.1-0.3,0.1-0.4V47.3z"/>
		<path id="XMLID_279_" class="st1" d="M127.6,51l-0.7,0.7v1.8h-1.2v-6.3h1.2v2.9l0.6-0.8l1.5-2.1h1.5l-2.1,2.8l2.2,3.5h-1.4
			L127.6,51z"/>
		<path id="XMLID_277_" class="st1" d="M141.6,52.6h2.9v1h-4.1v-6.3h1.2V52.6z"/>
		<path id="XMLID_274_" class="st1" d="M157.4,52c0,0.2,0,0.3-0.1,0.5c0,0.2-0.1,0.3-0.2,0.5c-0.1,0.2-0.2,0.3-0.3,0.5
			c-0.1,0.1-0.2,0.3-0.3,0.4l-0.6-0.3c0.1-0.1,0.1-0.2,0.2-0.3c0-0.1,0.1-0.2,0.1-0.3s0.1-0.2,0.1-0.4c0-0.1,0-0.3,0-0.4v-1h1.1
			L157.4,52z M156,47.9c0-0.1,0-0.2,0.1-0.3c0-0.1,0.1-0.2,0.2-0.2c0.1-0.1,0.2-0.1,0.3-0.2c0.1,0,0.2-0.1,0.3-0.1s0.2,0,0.3,0.1
			c0.1,0,0.2,0.1,0.3,0.2c0.1,0.1,0.1,0.2,0.2,0.2c0,0.1,0.1,0.2,0.1,0.3c0,0.1,0,0.2-0.1,0.3c0,0.1-0.1,0.2-0.2,0.2
			c-0.1,0.1-0.2,0.1-0.3,0.2c-0.1,0-0.2,0.1-0.3,0.1s-0.2,0-0.3-0.1c-0.1,0-0.2-0.1-0.3-0.2c-0.1-0.1-0.1-0.2-0.2-0.2
			C156,48.1,156,48,156,47.9z"/>
		<path id="XMLID_272_" class="st1" d="M171.8,50c0,0.1,0,0.3-0.1,0.5c0,0.2-0.1,0.3-0.2,0.5c-0.1,0.1-0.2,0.3-0.2,0.4
			c-0.1,0.1-0.2,0.2-0.3,0.3l-0.5-0.3c0.1-0.2,0.2-0.4,0.3-0.6c0.1-0.2,0.1-0.5,0.1-0.7v-0.7h1V50z"/>
		<path id="XMLID_270_" class="st1" d="M32.9,67.2H36v1h-4.6v-0.7l3-4.5h-3v-1h4.5l0,0.7L32.9,67.2z"/>
		<path id="XMLID_268_" class="st1" d="M48,64.1l1.1-2.2h1.4L48.8,65l1.8,3.2h-1.4L48,65.9l-1.1,2.3h-1.4l1.8-3.2l-1.8-3.1h1.4
			L48,64.1z"/>
		<path id="XMLID_266_" class="st1" d="M64.6,66.2c0,0.3-0.1,0.6-0.2,0.8c-0.1,0.3-0.3,0.5-0.5,0.6c-0.2,0.2-0.4,0.3-0.7,0.4
			c-0.3,0.1-0.6,0.1-0.9,0.1c-0.4,0-0.7-0.1-1-0.2c-0.3-0.1-0.5-0.3-0.7-0.6c-0.2-0.2-0.3-0.5-0.4-0.9S60,65.8,60,65.4v-0.8
			c0-0.4,0.1-0.8,0.2-1.1c0.1-0.3,0.3-0.6,0.5-0.9c0.2-0.2,0.4-0.4,0.7-0.6c0.3-0.1,0.6-0.2,1-0.2c0.3,0,0.6,0,0.9,0.1
			c0.3,0.1,0.5,0.2,0.7,0.4c0.2,0.2,0.3,0.4,0.4,0.7c0.1,0.3,0.2,0.6,0.2,0.9h-1.2c0-0.2,0-0.3-0.1-0.5c0-0.1-0.1-0.3-0.2-0.3
			c-0.1-0.1-0.2-0.2-0.3-0.2c-0.1,0-0.3-0.1-0.5-0.1c-0.2,0-0.3,0-0.5,0.1c-0.1,0.1-0.3,0.2-0.3,0.4c-0.1,0.2-0.2,0.3-0.2,0.6
			c0,0.2-0.1,0.5-0.1,0.8v0.8c0,0.6,0.1,1.1,0.3,1.4c0.2,0.3,0.4,0.4,0.8,0.4c0.3,0,0.6-0.1,0.7-0.3s0.3-0.4,0.3-0.8H64.6z"/>
		<path id="XMLID_264_" class="st1" d="M76.6,66.4l1.2-4.5h1.3l-1.9,6.3H76l-1.9-6.3h1.3L76.6,66.4z"/>
		<path id="XMLID_260_" class="st1" d="M88.6,68.1v-6.3h2.1c0.3,0,0.7,0,0.9,0.1s0.5,0.2,0.7,0.3c0.2,0.1,0.4,0.3,0.5,0.5
			c0.1,0.2,0.2,0.5,0.2,0.8c0,0.3-0.1,0.6-0.2,0.8c-0.2,0.2-0.4,0.4-0.7,0.5c0.2,0,0.3,0.1,0.5,0.2c0.1,0.1,0.2,0.2,0.3,0.3
			c0.1,0.1,0.2,0.3,0.2,0.4c0,0.1,0.1,0.3,0.1,0.5c0,0.3-0.1,0.6-0.2,0.8c-0.1,0.2-0.3,0.4-0.4,0.6c-0.2,0.2-0.4,0.3-0.7,0.3
			c-0.3,0.1-0.6,0.1-0.9,0.1H88.6z M89.8,64.5h0.9c0.3,0,0.6-0.1,0.8-0.2c0.2-0.1,0.3-0.3,0.3-0.6c0-0.3-0.1-0.5-0.3-0.6
			c-0.2-0.1-0.4-0.2-0.8-0.2h-0.9V64.5z M89.8,65.4v1.8h1.1c0.3,0,0.6-0.1,0.8-0.2c0.2-0.2,0.3-0.4,0.3-0.6c0-0.3-0.1-0.5-0.2-0.7
			c-0.2-0.2-0.4-0.2-0.7-0.2H89.8z"/>
		<path id="XMLID_258_" class="st1" d="M107.3,68.1h-1.2l-1.7-4v4h-1.2v-6.3h1.2l1.7,4l0-4h1.2V68.1z"/>
		<path id="XMLID_256_" class="st1" d="M118.8,61.9l0.6,2.3l0.7-2.3h1.5v6.3h-1.1v-1.9l0.1-2.9l-0.8,2.7h-0.6l-0.7-2.6l0.1,2.8v1.9
			h-1.1v-6.3H118.8z"/>
		<path id="XMLID_254_" class="st1" d="M134.5,64.6c0,0.2,0,0.3-0.1,0.5c0,0.2-0.1,0.3-0.2,0.5c-0.1,0.2-0.2,0.3-0.3,0.5
			c-0.1,0.1-0.2,0.3-0.3,0.4l-0.6-0.3c0.1-0.1,0.1-0.2,0.2-0.3c0-0.1,0.1-0.2,0.1-0.3c0-0.1,0.1-0.2,0.1-0.4c0-0.1,0-0.3,0-0.4v-1
			h1.1L134.5,64.6z"/>
		<path id="XMLID_252_" class="st1" d="M147.2,65c0-0.1,0-0.2,0.1-0.3c0-0.1,0.1-0.2,0.2-0.2c0.1-0.1,0.2-0.1,0.3-0.2
			c0.1,0,0.2-0.1,0.3-0.1s0.2,0,0.3,0.1c0.1,0,0.2,0.1,0.3,0.2c0.1,0.1,0.1,0.2,0.2,0.2c0,0.1,0.1,0.2,0.1,0.3c0,0.1,0,0.2-0.1,0.3
			c0,0.1-0.1,0.2-0.2,0.2c-0.1,0.1-0.2,0.1-0.3,0.2c-0.1,0-0.2,0.1-0.3,0.1s-0.2,0-0.3-0.1c-0.1,0-0.2-0.1-0.3-0.2
			c-0.1-0.1-0.1-0.2-0.2-0.2C147.2,65.2,147.2,65.1,147.2,65z"/>
		<path id="XMLID_250_" class="st1" d="M161.7,68.4h-1.1l2.3-6.8h1.1L161.7,68.4z"/>
		<path id="XMLID_381_" class="st1" d="M195.3,33.2h1.1l2.3,6.8h-1.1L195.3,33.2z"/>
	</g>
</g>
</svg>
